<svg width="93" height="79" viewBox="0 0 93 79" fill="none" xmlns="http://www.w3.org/2000/svg">
<path d="M2.91677 14.3877V14.4502C2.9363 16.7705 5.33087 18.9971 9.37767 20.8721C8.26047 19.6612 7.65107 18.3369 7.65107 16.9385C7.65107 13.5323 11.2527 10.5752 17.0808 8.55179C22.5183 6.66119 29.9948 5.49319 38.2258 5.49319C46.4568 5.49319 53.9368 6.66509 59.3708 8.55179C65.195 10.5752 68.8005 13.5362 68.8005 16.9385C68.8005 18.3369 68.195 19.6573 67.0739 20.8721C71.1364 18.9893 73.5348 16.7549 73.5348 14.4229C73.5348 11.501 69.7614 8.72759 63.6676 6.60649C57.1832 4.34869 48.1906 2.95419 38.2266 2.95419C28.2657 2.95419 19.2696 4.34869 12.7856 6.60649C6.71527 8.71979 2.94967 11.4776 2.91837 14.3838L2.91677 14.3877ZM76.2178 18.0518C79.1319 18.7549 81.6944 20.5127 83.5772 22.9463C85.628 25.6025 86.8702 29.0674 86.8702 32.8447C86.8702 36.9892 85.378 40.7549 82.96 43.4897C80.5108 46.2631 77.1162 47.9819 73.3584 47.9819C72.667 47.9819 71.9795 47.9233 71.3037 47.8061C70.9912 47.7514 70.6826 47.685 70.3779 47.6069C70.163 48.0327 69.9404 48.4546 69.7138 48.8725C70.3779 49.1655 71.0615 49.4076 71.7646 49.5912C72.831 49.8686 73.956 50.0209 75.1201 50.0209C79.2373 50.0209 82.9795 48.1186 85.6901 45.0482C88.4362 41.9388 90.1354 37.6185 90.1354 32.8452C90.1354 28.0679 88.4362 23.7514 85.6901 20.6422C83.2018 17.8219 79.8424 15.9899 76.1198 15.7086C76.1667 16.4821 76.1982 17.2666 76.2178 18.0518ZM71.46 45.3018L71.7256 45.3526C72.249 45.4424 72.7959 45.4893 73.3623 45.4893C76.374 45.4893 79.1123 44.0987 81.1006 41.8487C83.124 39.5596 84.374 36.3799 84.374 32.8565C84.374 29.6417 83.331 26.7081 81.6084 24.4776C80.2061 22.6612 78.3506 21.3096 76.249 20.6573C76.1904 28.8214 74.8154 37.6063 71.4638 45.3093L71.46 45.3018ZM75.8975 13.1998C80.4522 13.4185 84.5498 15.5943 87.5535 19.0006C90.6902 22.5553 92.6355 27.4576 92.6355 32.8556C92.6355 38.254 90.6902 43.1566 87.5535 46.7106C84.3777 50.3083 79.9832 52.5348 75.1195 52.5348C73.7601 52.5348 72.4242 52.359 71.139 52.0192C70.2132 51.777 69.3109 51.4528 68.4437 51.0504C67.9827 51.7809 67.4984 52.4957 66.9945 53.1949C69.6664 54.4137 71.85 55.8121 73.4398 57.3433C75.3773 59.2105 76.4476 61.2964 76.4476 63.5191C76.4476 65.1168 75.889 66.6558 74.8499 68.0894C73.8421 69.48 72.3655 70.7808 70.5061 71.9605C69.924 72.3277 69.1545 72.1519 68.7873 71.5699C68.4201 70.9879 68.5959 70.2183 69.1779 69.8511C70.7677 68.8472 72.006 67.7613 72.8302 66.6245C73.5607 65.6206 73.9474 64.5737 73.9474 63.5151C73.9474 62.0073 73.1505 60.5268 71.713 59.1362C70.2286 57.7026 68.0841 56.3784 65.4122 55.2182C60.0372 61.5932 52.3692 66.0502 41.7562 66.8632C40.6039 66.9491 39.4242 66.996 38.225 66.996C29.5961 66.996 22.733 64.7265 17.338 60.9765C14.9552 59.3203 12.8653 57.3788 11.0411 55.2148C8.36919 56.375 6.22469 57.6992 4.74029 59.1328C3.29889 60.5234 2.50589 62.0039 2.50589 63.5117C2.50589 66.875 6.34179 70.0351 12.5329 72.4219C19.0837 74.9453 28.1659 76.5039 38.2239 76.5039C42.1341 76.5039 45.9036 76.2656 49.4309 75.8242C53.0911 75.3711 56.4856 74.7031 59.5089 73.8633C60.1729 73.6797 60.8605 74.0704 61.0401 74.7344C61.2237 75.3985 60.8331 76.086 60.169 76.2656C57.0088 77.1445 53.4893 77.8398 49.731 78.3047C46.1021 78.7539 42.2349 79 38.219 79C27.864 79 18.457 77.3711 11.629 74.7383C4.4454 71.9688 0 68.0039 0 63.5043C0 61.2855 1.0664 59.1996 3.0078 57.3285C4.5937 55.7973 6.7812 54.3988 9.4531 53.1801C7.2734 50.1879 5.539 46.852 4.1836 43.3285C3.94141 42.6879 4.26172 41.9652 4.90235 41.723C5.54297 41.4808 6.26565 41.8011 6.50785 42.4418C7.96095 46.2309 9.88675 49.7856 12.3555 52.8828L12.3751 52.9062L12.3946 52.9257L12.4141 52.9492C14.2266 55.207 16.3282 57.2226 18.7579 58.9101C23.7501 62.3789 30.1449 64.4765 38.2189 64.4765C39.3751 64.4765 40.4923 64.4335 41.5627 64.3554C51.7737 63.5741 59.0397 59.1718 64.0427 52.9254L64.0623 52.9019C65.0701 51.6402 65.9842 50.3082 66.8123 48.9137C67.449 47.8473 68.035 46.7379 68.574 45.605L68.5857 45.5777L68.6013 45.5504C72.2927 37.7457 73.7419 28.5624 73.7419 20.0934L73.738 19.3512C71.7536 21.3864 68.5622 23.1715 64.4763 24.5895C49.9213 29.652 26.5153 29.652 11.9563 24.5895C7.87431 23.1676 4.67901 21.3864 2.69461 19.3512C2.67899 20.7184 2.70243 22.1012 2.76493 23.4957C2.89774 26.3668 3.20634 29.2965 3.71805 32.2184C3.83524 32.8981 3.38211 33.5426 2.70245 33.6598C2.02276 33.777 1.37825 33.3238 1.26105 32.6442C0.733707 29.6442 0.413387 26.5973 0.276677 23.5973C0.128237 20.4293 0.182927 17.3278 0.405587 14.3942C0.425118 10.3004 4.83529 6.72617 11.9526 4.24917C18.6948 1.90147 27.9876 0.452271 38.2106 0.452271C48.4336 0.452271 57.7226 1.90537 64.4686 4.24917C70.8788 6.47967 75.0936 9.60467 75.8826 13.1906L75.8975 13.1998ZM58.5495 22.9771C63.3386 21.313 66.2995 19.1685 66.2995 16.9419C66.2995 14.7153 63.3386 12.5708 58.5495 10.9067C53.3737 9.10589 46.1905 7.98869 38.2255 7.98869C30.2605 7.98869 23.0775 9.10589 17.9015 10.9067C13.1124 12.5708 10.1515 14.7153 10.1515 16.9419C10.1515 19.1724 13.1124 21.313 17.9015 22.9771C29.0815 26.8638 47.3745 26.8638 58.5535 22.9771H58.5495ZM64.7722 72.0751C65.4128 71.8212 66.1355 72.1298 66.3933 72.7665C66.6472 73.4071 66.3386 74.1298 65.7019 74.3876L65.2058 74.5868C64.5652 74.8407 63.8425 74.5321 63.5847 73.8954C63.3308 73.2548 63.6394 72.5321 64.2761 72.2743L64.7722 72.0751ZM2.39717 37.7901C2.22139 37.126 2.61592 36.4385 3.27998 36.2628C3.94404 36.087 4.63158 36.4815 4.80728 37.1456L4.944 37.6612C5.11978 38.3253 4.72525 39.0128 4.06119 39.1885C3.39713 39.3643 2.70959 38.9698 2.53389 38.3057L2.39717 37.7901Z" fill="white"/>
</svg>
