<svg width="80" height="61" viewBox="0 0 80 61" fill="none" xmlns="http://www.w3.org/2000/svg">
<path d="M76.8186 48.048C75.4788 45.3878 73.678 42.4542 72.9631 41.7746C70.5959 39.509 57.5221 25.3486 56.5331 22.9196C55.3143 19.9196 51.6542 17.4157 49.2323 15.7594C48.3065 15.1265 47.4354 14.5289 47.1542 14.2047C45.2206 11.9625 44.1933 11.2438 42.8964 10.3375C42.2206 9.86479 41.4511 9.32185 40.4355 8.47415C40.9901 3.95075 39.3613 1.88035 37.8652 0.942954C34.4746 -1.17425 29.0488 0.571864 25.1742 3.23595C20.4008 6.52115 7.26415 17.994 5.21715 23.068C4.80699 24.0797 4.13905 25.2868 3.42805 26.5641C1.40855 30.1969 -0.884446 34.3141 0.346054 37.8731C0.994494 39.7481 2.58045 41.2286 5.06085 42.2715C7.06475 43.1152 10.7054 43.8106 14.9203 44.6192C20.9672 45.7794 27.8223 47.0919 32.0143 49.209C33.4831 49.9511 35.8659 50.6192 39.1823 51.4199C39.1823 51.6347 39.1979 51.8574 39.2408 52.0839C39.7487 54.7714 40.9011 55.3027 41.7682 55.2714C42.8776 55.2363 43.9829 54.1894 44.8892 52.7792C49.3033 53.8534 53.8501 55.0839 57.5492 56.7675C59.9672 57.8691 64.6273 58.6894 68.0293 59.287C68.5996 59.3886 69.1308 59.4823 69.6073 59.5683C71.2909 59.8769 72.6815 60.0292 73.8261 60.0292C75.4902 60.0292 76.6464 59.7011 77.4589 59.037C78.6972 58.0292 78.9355 56.4003 78.9784 55.0331C79.1503 54.2284 79.0214 52.4276 76.8143 48.0448L76.8186 48.048ZM71.8733 42.9152C72.1897 43.2159 73.0647 44.5285 74.053 46.2472C73.5451 46.2472 72.8538 46.1026 72.096 45.7472C70.7913 45.1378 69.9202 44.2199 69.8733 43.4034C69.8381 42.7862 70.2873 42.2472 70.8108 41.8331C71.3108 42.3526 71.6818 42.7315 71.8772 42.9151L71.8733 42.9152ZM6.68225 23.6572C8.51425 19.1181 21.3853 7.75915 26.0733 4.53615C30.1553 1.72755 34.6631 0.797854 37.0343 2.27835C39.0812 3.55565 39.1515 6.39165 38.839 8.58305C38.4757 9.05961 36.4835 10.4503 34.5578 11.794C28.8078 15.8018 18.8898 22.72 14.6128 30.271C14.437 29.771 14.1948 29.2983 13.8784 28.8648C12.769 27.3453 10.9136 26.5328 8.91358 26.6851C7.46047 26.7944 5.87837 27.2202 4.50737 27.8843C4.60893 27.7007 4.71049 27.5132 4.81206 27.3335C5.54644 26.0132 6.24176 24.7632 6.68706 23.6616L6.68225 23.6572ZM32.7253 47.7942C28.3347 45.5754 21.3663 44.2395 15.2173 43.0637C11.0884 42.2746 7.52195 41.591 5.67035 40.8098C3.59225 39.9348 2.33835 38.8059 1.83835 37.3528C1.24069 35.6262 1.75632 33.5794 2.65866 31.5012C3.27194 29.9778 6.20946 28.4739 9.02586 28.259C10.4986 28.1457 11.7993 28.7082 12.5923 29.7942C13.268 30.7199 13.4946 31.9231 13.2602 33.2083C13.1079 33.6418 12.9751 34.0793 12.8696 34.5169C12.7368 34.802 11.518 37.2591 9.2524 37.0403C8.49849 36.9699 7.8344 36.5715 7.4243 35.9465C6.94774 35.216 6.87352 34.2434 7.21336 33.2082C7.35008 32.7941 7.12352 32.3488 6.70945 32.2121C6.29539 32.0753 5.85007 32.3019 5.71336 32.716C5.22117 34.2199 5.35789 35.673 6.10399 36.8137C6.77586 37.841 7.86959 38.4973 9.10399 38.6145C9.25243 38.6301 9.39696 38.634 9.54149 38.634C11.7759 38.634 13.2798 36.966 13.9868 35.7902C14.3813 35.9504 14.6977 36.0636 15.2876 36.1574C15.8931 36.3488 21.4087 38.384 22.0767 38.6613C24.3892 40.3097 33.6157 43.3019 35.9397 43.7277C40.76 44.6027 41.7444 45.423 41.9045 45.8332C42.0529 46.216 41.4514 46.9973 40.9201 47.6887C40.4279 48.3293 39.8771 49.0598 39.5295 49.8801C36.8381 49.2317 34.1897 48.5363 32.7287 47.7981L32.7253 47.7942ZM41.7136 53.6926H41.7057C41.4284 53.6926 41.0378 53.1066 40.7878 51.7903C40.5847 50.7083 41.3893 49.6614 42.1667 48.6497C42.9909 47.5794 43.8386 46.47 43.3737 45.263C42.8463 43.8958 40.7721 42.9974 36.2175 42.1692C33.8034 41.7317 24.7915 38.7239 22.9475 37.3411C22.8342 37.2551 22.7639 37.2043 19.26 35.9114C15.7912 34.6341 15.6584 34.6106 15.5686 34.5989C15.1311 34.5324 14.928 34.466 14.6037 34.3332C14.6701 34.1106 14.7209 33.8918 14.7678 33.6731C17.6194 25.5286 29.1228 17.5051 35.4558 13.0911C37.7527 11.4895 39.0417 10.5794 39.7214 9.92696C40.6394 10.677 41.3542 11.1809 41.9909 11.6262C43.2448 12.5051 44.155 13.1379 45.9557 15.2317C46.3698 15.7121 47.194 16.2786 48.3385 17.0598C50.6041 18.6106 54.026 20.9543 55.0651 23.5129C56.0729 25.9856 65.6161 36.3879 69.9281 40.9189C68.7953 41.8603 68.5609 42.8017 68.6 43.4736C68.6898 45.0205 70.182 46.2548 71.5531 46.8916C72.307 47.2431 73.2211 47.5127 74.0492 47.5127C74.2797 47.5127 74.5023 47.4853 74.7133 47.4384C74.9554 47.8837 75.1937 48.3369 75.432 48.8095C77.4437 52.8173 77.557 54.4111 77.4164 54.747C77.3695 54.7509 77.268 54.7509 77.0844 54.7002L76.8266 54.6299C74.5727 54.0283 69.1274 52.5712 63.0606 51.7079C63.0801 49.286 61.7872 47.3681 59.4708 46.497C57.3966 45.7197 55.2013 46.0635 54.3614 47.3017C54.1348 47.6377 53.9121 48.2041 54.0801 48.9775C53.9278 48.9072 53.7715 48.833 53.6192 48.7627C48.9434 46.5596 46.9395 45.7158 45.9395 46.2666C45.6231 46.4424 45.416 46.751 45.3731 47.1143C45.209 48.4581 44.5996 50.1573 43.7833 51.5518C42.9317 53.001 42.1159 53.677 41.7136 53.6926ZM55.8856 49.8215C55.3074 49.0675 55.1277 48.4231 55.4051 48.0168C55.8387 47.38 57.4324 47.0871 59.0262 47.6847C59.8895 48.0089 61.7567 49.0089 61.8035 51.5441C61.1863 51.466 60.5652 51.3918 59.9441 51.3293C59.1628 51.2512 57.5886 50.5949 55.8856 49.8215ZM76.4596 57.8137C75.5025 58.591 73.4165 58.6574 69.8893 58.0129C69.4088 57.9269 68.8737 57.8293 68.2995 57.7316C64.9831 57.1496 60.4362 56.3527 58.2015 55.3332C54.5062 53.6496 50.0413 52.4191 45.6855 51.3488C46.2675 50.1379 46.6972 48.8215 46.8886 47.6926C47.955 47.845 50.9238 49.2434 52.9472 50.1965C55.748 51.5168 58.3925 52.7629 59.787 52.9035C66.912 53.6145 73.818 55.466 76.42 56.1613L76.6778 56.2316C76.8926 56.2902 77.0801 56.3137 77.2559 56.3215C77.1074 57.0168 76.8496 57.4973 76.4629 57.8137L76.4596 57.8137ZM33.2056 20.9617C32.4126 20.7937 31.9244 21.0867 31.6509 21.364C30.8266 22.196 31.0415 23.8367 31.1548 24.4499C30.8266 24.5007 30.1392 24.4499 29.6587 24.4147C28.1157 24.3015 26.1939 24.1608 25.8149 25.6335C25.5219 26.7741 25.6196 27.5827 26.1156 28.1062C26.9086 28.9422 28.3109 28.657 29.6664 28.3836C30.2563 28.2625 31.2367 28.0672 31.4828 28.1961C31.4867 28.2039 31.4867 28.2195 31.4907 28.243C31.7016 31.5477 33.0727 32.075 33.8696 32.0985H33.9203C35.7172 32.0985 37.6976 29.579 38.0141 26.868C38.3657 23.8758 36.5689 21.6687 33.2056 20.9617ZM36.7564 26.7195C36.4868 29.0086 34.858 30.8328 33.9205 30.8328H33.9009C33.2876 30.8171 32.8579 29.8172 32.7486 28.1609C32.7174 27.6491 32.4674 27.3562 32.2642 27.1999C31.9674 26.9734 31.6002 26.8913 31.1744 26.8913C30.6588 26.8913 30.0611 27.0124 29.4127 27.1413C28.5885 27.3093 27.3424 27.5593 27.0299 27.2312C26.9713 27.1687 26.7956 26.8913 27.0378 25.946C27.1549 25.4928 28.7214 25.61 29.5651 25.6725C30.7721 25.7624 31.7253 25.8327 32.2096 25.2741C32.3346 25.1296 32.526 24.8171 32.4205 24.3327C32.2252 23.4538 32.2838 22.5241 32.5494 22.2546C32.5807 22.2233 32.6627 22.1413 32.9439 22.1999C36.6314 22.9733 36.9127 25.3641 36.7564 26.7195ZM52.0104 36.8645C50.7565 38.4036 50.4674 39.8059 51.2408 40.6184C52.1393 41.5637 54.19 41.3215 55.5455 40.4934C55.9244 40.9816 56.5924 41.7395 57.7174 42.4661C59.0182 43.3059 60.2096 43.7395 61.1705 43.7395C61.6979 43.7395 62.1588 43.6105 62.526 43.3449C63.1784 42.8762 63.4323 42.0637 63.2057 41.173C62.8659 39.8332 61.4127 38.3449 58.8815 37.6886C59.6237 36.923 59.9792 36.2042 59.9479 35.5441C59.9245 35.0519 59.6745 34.6379 59.2526 34.3722C57.0143 32.9738 53.8503 34.6144 52.0104 36.8683L52.0104 36.8645ZM58.5846 35.4426C58.6666 35.4933 58.6861 35.5402 58.6861 35.6066C58.7017 35.9308 58.2994 36.6418 57.1119 37.5675C56.9088 37.7238 56.8229 37.9894 56.8893 38.2355C56.9557 38.4816 57.1666 38.6652 57.4205 38.6964C60.1549 39.0402 61.7017 40.38 61.9791 41.4816C62.0338 41.7004 62.0846 42.1027 61.7877 42.3176C61.3541 42.6262 60.2096 42.5754 58.401 41.4074C57.1862 40.6222 56.5885 39.7941 56.3307 39.4386C56.1784 39.2277 56.0377 39.0324 55.7369 38.9972C55.7135 38.9933 55.6901 38.9933 55.6666 38.9933C55.5104 38.9933 55.358 39.0519 55.2409 39.1535C54.3385 39.9503 52.5729 40.1964 52.1511 39.7511C51.9636 39.5519 52.0964 38.755 52.9831 37.6691C54.2643 36.0988 56.8503 34.3683 58.5769 35.4464L58.5846 35.4426ZM47.4866 38.6887C48.1076 37.3059 47.0959 35.2746 45.2327 34.1575C43.1155 32.888 39.3577 32.138 37.8147 34.0325C37.2248 34.7551 37.2443 35.6302 37.8693 36.3723C38.6233 37.2707 40.2052 37.8606 41.1935 37.3058C41.424 37.1769 41.6076 37.134 41.7482 37.1769C42.0881 37.2824 42.4006 37.9074 42.6271 38.3644C42.9045 38.923 43.1428 39.4035 43.6193 39.5519C44.3186 39.7707 44.8966 39.8605 45.3771 39.8605C46.7794 39.8605 47.3107 39.0988 47.4943 38.6886L47.4866 38.6887ZM44.0647 38.3683C43.9826 38.2629 43.8459 37.9894 43.7522 37.798C43.4045 37.0988 42.9709 36.2277 42.1116 35.966C41.6311 35.8176 41.1116 35.8957 40.5686 36.2004C40.2639 36.3723 39.3069 36.1223 38.8303 35.5559C38.5451 35.2199 38.6428 35.0051 38.7873 34.8293C39.717 33.6926 42.717 34.1223 44.5764 35.2395C46.053 36.1223 46.5998 37.5637 46.3264 38.1692C46.1076 38.6536 45.2444 38.7239 44.0569 38.3645L44.0647 38.3683ZM49.3264 27.5793C49.5646 27.6184 49.8185 27.6379 50.0842 27.6379C51.4397 27.6379 53.0178 27.1145 53.7873 26.0598C54.3771 25.2473 54.4162 24.2356 53.8888 23.216C53.3927 22.2551 50.6544 21.0402 48.8341 20.9777C47.5841 20.9348 47.0138 21.427 46.756 21.8488C46.0451 23.0168 45.9357 24.2668 46.4435 25.3683C46.9591 26.4933 48.1193 27.3839 49.3263 27.5831L49.3264 27.5793ZM47.8342 22.5012C47.9709 22.2747 48.4084 22.2395 48.6584 22.2356H48.674C50.2404 22.2356 52.4943 23.3762 52.7599 23.7942C53.0685 24.3919 53.0646 24.888 52.7599 25.3137C52.1583 26.1418 50.6037 26.509 49.5294 26.3293C48.7286 26.1965 47.9317 25.5832 47.588 24.8371C47.256 24.1184 47.342 23.3098 47.8342 22.5012ZM28.2172 32.4035C27.0063 32.0051 25.0336 31.9856 24.436 32.6965C23.5453 33.4153 23.2602 34.4504 23.6586 35.552C24.2758 37.2551 26.4203 38.7942 28.1352 38.7942C28.1782 38.7942 28.2251 38.7942 28.268 38.7903C29.3657 38.7395 30.1625 38.052 30.4555 36.9075C31.0219 34.7044 30.2094 33.0597 28.2172 32.4035ZM29.2289 36.591C29.0726 37.2004 28.7445 37.4973 28.2055 37.5246C27.018 37.5871 25.2914 36.3449 24.8461 35.1184C24.6234 34.5012 24.7601 34.0325 25.2757 33.6418C25.3187 33.6106 25.3578 33.5715 25.389 33.5286C25.7757 33.3567 27.5374 33.2082 28.6078 33.9973C29.3383 34.5364 29.5414 35.3839 29.2289 36.591ZM37.35 18.134C37.9554 18.5364 38.8031 18.7473 39.7016 18.7473C41.1157 18.7473 42.6547 18.2317 43.5649 17.1457C44.4086 16.1418 44.6391 15.2863 44.2563 14.5949C43.6039 13.423 41.5375 13.5793 40.6782 13.7004C39.2212 13.9074 36.6626 14.6613 36.3149 16.1809C36.2016 16.677 36.2875 17.4192 37.3501 18.1301L37.35 18.134ZM40.8578 14.9543C41.2171 14.9036 41.5374 14.8801 41.8187 14.8801C42.5999 14.8801 43.0648 15.0481 43.1546 15.2082C43.2093 15.3059 43.1624 15.6614 42.5999 16.3293C41.4944 17.6457 39.0218 17.7277 38.053 17.0793C37.7014 16.845 37.5139 16.6145 37.5491 16.4622C37.6663 15.9543 39.1038 15.2005 40.8577 14.9505L40.8578 14.9543ZM43.139 25.7943L43.5179 26.8568C43.6624 27.267 43.4476 27.7201 43.0374 27.8646C42.9515 27.8959 42.8616 27.9115 42.7718 27.9115C42.4476 27.9115 42.1429 27.7084 42.0257 27.3842L41.6468 26.3217C41.5022 25.9115 41.7171 25.4584 42.1272 25.3139C42.5374 25.1694 42.9905 25.3842 43.135 25.7943L43.139 25.7943ZM53.303 30.0951L54.299 30.2787C54.7287 30.3569 55.0139 30.7709 54.9319 31.2006C54.8615 31.5795 54.5295 31.8491 54.1545 31.8491C54.1076 31.8491 54.0569 31.8451 54.01 31.8373L53.0139 31.6537C52.5842 31.5756 52.2991 31.1616 52.3811 30.7319C52.4592 30.3022 52.8733 30.0209 53.303 30.0991L53.303 30.0951ZM49.9905 43.9781C49.8537 44.2633 49.5725 44.4274 49.2756 44.4274C49.1623 44.4274 49.0451 44.4039 48.9358 44.3492L47.6624 43.7438C47.2678 43.5563 47.0999 43.0836 47.2874 42.6891C47.4749 42.2945 47.9475 42.1266 48.3421 42.3141L49.6155 42.9195C50.01 43.107 50.178 43.5797 49.9905 43.9742L49.9905 43.9781ZM65.8185 48.4625L65.9708 47.6344C66.0489 47.2047 66.463 46.9196 66.8927 47.0016C67.3224 47.0797 67.6075 47.4938 67.5255 47.9235L67.3731 48.7516C67.3028 49.1305 66.9708 49.4001 66.5958 49.4001C66.5489 49.4001 66.4982 49.3961 66.4513 49.3883C66.0216 49.3102 65.7364 48.8961 65.8185 48.4665L65.8185 48.4625ZM20.8615 29.6265L20.7677 30.1226C20.6974 30.5015 20.3654 30.7711 19.9904 30.7711C19.9435 30.7711 19.8927 30.7672 19.8458 30.7594C19.4161 30.6812 19.1349 30.2672 19.213 29.8375L19.3068 29.3414C19.3849 28.9117 19.799 28.6265 20.2287 28.7086C20.6583 28.7867 20.9396 29.2008 20.8615 29.6305L20.8615 29.6265ZM19.467 13.5755C19.2209 13.3255 19.2248 12.9271 19.4748 12.681C21.6506 10.5443 24.8928 7.66151 26.8654 6.56381C27.1701 6.39584 27.5568 6.50522 27.7247 6.8099C27.8927 7.11459 27.7833 7.50131 27.4787 7.66928C25.7326 8.64194 22.6428 11.3412 20.3576 13.5834C20.2365 13.7045 20.0763 13.7631 19.9161 13.7631C19.7521 13.7631 19.588 13.7006 19.463 13.5756L19.467 13.5755ZM13.9787 19.4661C13.6974 19.2591 13.6427 18.8607 13.8497 18.5833C14.5802 17.6029 15.0958 17.0638 15.5138 16.6302C15.8771 16.2513 16.1388 15.9779 16.4045 15.5521C16.5881 15.2553 16.9787 15.1654 17.2756 15.349C17.5724 15.5326 17.6623 15.9232 17.4787 16.2201C17.1427 16.7592 16.8107 17.1029 16.4279 17.5053C16.0373 17.9155 15.549 18.4233 14.8654 19.3412C14.7404 19.5092 14.549 19.5951 14.3576 19.5951C14.2248 19.5951 14.092 19.5561 13.9787 19.4701L13.9787 19.4661ZM31.7207 17.5911C31.7988 17.1615 32.2128 16.8802 32.6425 16.9583L33.6386 17.1419C34.0683 17.2201 34.3535 17.6341 34.2714 18.0638C34.2011 18.4427 33.8691 18.7122 33.4941 18.7122C33.4472 18.7122 33.3964 18.7083 33.3496 18.7005L32.3535 18.5169C31.9238 18.4388 31.6386 18.0247 31.7207 17.5951L31.7207 17.5911ZM35.2949 36.7671L35.1425 37.5953C35.0722 37.9742 34.7402 38.2437 34.3652 38.2437C34.3183 38.2437 34.2675 38.2398 34.2206 38.232C33.791 38.1539 33.5058 37.7398 33.5878 37.3101L33.7402 36.482C33.8183 36.0523 34.2324 35.771 34.6621 35.8492C35.0917 35.9273 35.3769 36.3414 35.2949 36.771L35.2949 36.7671ZM61.7049 37.3648L61.8572 36.5367C61.9353 36.107 62.3494 35.8257 62.7791 35.9039C63.2088 35.982 63.4939 36.3961 63.4119 36.8258L63.2595 37.6539C63.1892 38.0328 62.8572 38.3023 62.4822 38.3023C62.4353 38.3023 62.3846 38.2984 62.3377 38.2906C61.908 38.2125 61.6228 37.7984 61.7049 37.3687L61.7049 37.3648Z" fill="white"/>
</svg>
