<svg width="73" height="69" viewBox="0 0 73 69" fill="none" xmlns="http://www.w3.org/2000/svg">
<path d="M22.8774 19.6002C23.5433 19.54 24.0367 18.9253 23.9792 18.2283C23.9217 17.5312 23.3435 17.0052 22.6685 17.0749C17.441 17.547 5.28766 19.1883 5.28766 24.2293C5.28766 29.3908 18.5608 31.7418 30.8925 31.7418C43.2241 31.7418 56.4973 29.3908 56.4973 24.2293C56.4973 19.1851 44.326 17.5438 39.0924 17.0717C38.4113 16.9925 37.8392 17.528 37.7817 18.2251C37.7242 18.9222 38.2176 19.5369 38.8836 19.597C49.6197 20.5634 54.0754 23.0919 54.0754 24.2293C54.0754 25.9181 45.8909 29.207 30.8921 29.207C15.8909 29.207 7.70881 25.9181 7.70881 24.2293C7.70881 23.0919 12.1592 20.5697 22.8774 19.6002Z" fill="white"/>
<path d="M63.8406 22.9616H60.8167V21.8907C60.8167 15.9466 48.4641 13.5863 43.1546 12.8482C42.4886 12.7531 41.8833 13.2443 41.7955 13.9382C41.7077 14.6321 42.1738 15.2689 42.8368 15.3608C53.053 16.7835 58.3982 19.7207 58.3982 21.8911V30.0527C58.3982 45.9265 46.0634 58.838 30.8988 58.838C15.731 58.8412 3.39624 45.9265 3.39624 30.0527V21.8911C3.39624 19.7207 8.74177 16.7835 18.9577 15.3608C19.6206 15.269 20.0867 14.6321 19.999 13.9382C19.9112 13.2443 19.3058 12.7627 18.6399 12.8482C13.3306 13.5865 0.977722 15.947 0.977722 21.8907V30.0523C0.977722 47.3236 14.3989 61.3724 30.8987 61.3724C42.7429 61.3724 53.0041 54.1292 57.8472 43.6508L63.0868 43.1471C68.5383 42.6243 72.649 37.9064 72.649 32.1782C72.649 27.0928 68.6988 22.958 63.8407 22.958L63.8406 22.9616ZM62.8629 40.6288L58.9249 41.0059C60.1447 37.5934 60.8167 33.9053 60.8167 30.0524V25.4929H63.8406C67.364 25.4929 70.2274 28.4935 70.2274 32.1784C70.2274 36.5921 67.0613 40.22 62.8629 40.6255V40.6288Z" fill="white"/>
<path d="M56.5427 52.1273C55.9282 51.839 55.2139 52.1241 54.9414 52.761C54.666 53.3979 54.9354 54.1488 55.5468 54.4371C57.9744 55.5841 59.3668 56.8674 59.3668 57.9605C59.3668 61.11 48.5361 65.5015 30.8957 65.5015C13.2544 65.5015 2.42453 61.11 2.42453 57.9605C2.42453 56.8674 3.81693 55.5841 6.24452 54.4371C6.85596 54.1488 7.12534 53.3979 6.84991 52.761C6.57748 52.1241 5.86013 51.8358 5.24866 52.1273C1.76769 53.7717 0 55.733 0 57.9636C0 64.5097 15.9155 68.0395 30.8927 68.0395C45.8698 68.0395 61.7854 64.5066 61.7854 57.9636C61.7854 55.7362 60.0207 53.7717 56.5397 52.1273H56.5427Z" fill="white"/>
<path d="M27.3055 17.7022C28.2892 18.732 29.5817 19.2452 30.8742 19.2452C32.1607 19.2452 33.4471 18.7351 34.4308 17.7149L39.7703 12.1701C41.6834 10.1835 42.3008 7.278 41.3806 4.5943C40.5028 2.03097 38.3779 0.285174 35.8444 0.0380226C34.1372 -0.139412 32.3574 0.310513 30.9044 1.25472C29.4455 0.307318 27.6566 -0.139452 25.9524 0.0411864C23.4128 0.297836 21.291 2.0437 20.4132 4.60063C19.496 7.27168 20.1074 10.1677 22.0053 12.1543L27.3055 17.7022ZM22.6924 5.45904C23.2585 3.81148 24.5631 2.72781 26.1915 2.56623C26.3641 2.54722 26.5427 2.53772 26.7182 2.53772C27.4871 2.53772 28.2559 2.73099 28.9581 3.06051C27.817 4.52436 27.1813 6.35256 27.1813 8.28532C27.1813 8.98556 27.7231 9.55271 28.3921 9.55271C29.061 9.55271 29.6029 8.98556 29.6029 8.28532C29.6029 6.53312 30.3535 4.89821 31.6611 3.7988C32.7326 2.87996 34.2037 2.41737 35.6083 2.56629C37.2276 2.72471 38.5323 3.80513 39.0983 5.45278C39.5675 6.82156 39.5402 8.83673 38.0601 10.3734L32.7206 15.9182C31.6945 16.9828 30.0327 16.9797 29.0126 15.9119L23.7125 10.3639C22.2445 8.82723 22.2202 6.82155 22.6864 5.45909L22.6924 5.45904Z" fill="white"/>
</svg>
