<svg width="100" height="94" viewBox="0 0 100 94" fill="none" xmlns="http://www.w3.org/2000/svg">
<path d="M31.4912 26.9794C32.4078 26.8966 33.087 26.0505 33.0078 25.091C32.9286 24.1315 32.1328 23.4075 31.2037 23.5034C24.0082 24.1532 7.2793 26.4125 7.2793 33.3513C7.2793 40.456 25.5495 43.692 42.5238 43.692C59.4981 43.692 77.7683 40.456 77.7683 33.3513C77.7683 26.408 61.0148 24.1489 53.8109 23.4991C52.8734 23.39 52.0859 24.1271 52.0068 25.0866C51.9276 26.0461 52.6067 26.8922 53.5234 26.9751C68.3015 28.3053 74.4346 31.7856 74.4346 33.3513C74.4346 35.6759 63.1689 40.203 42.5233 40.203C21.8745 40.203 10.612 35.6759 10.612 33.3513C10.612 31.7856 16.7378 28.314 31.4912 26.9794Z" fill="#008083"/>
<path d="M87.8752 31.6062H83.7129V30.1321C83.7129 21.9502 66.7098 18.7013 59.4013 17.6853C58.4847 17.5544 57.6514 18.2304 57.5306 19.1856C57.4097 20.1408 58.0514 21.0174 58.9639 21.1439C73.0263 23.1021 80.3839 27.1451 80.3839 30.1326V41.3669C80.3839 63.2168 63.4053 80.9893 42.5314 80.9893C21.6533 80.9937 4.67475 63.2168 4.67475 41.3669V30.1326C4.67475 27.1451 12.0328 23.1021 26.0947 21.1439C27.0072 21.0174 27.6488 20.1408 27.5281 19.1856C27.4072 18.2305 26.5739 17.5676 25.6573 17.6853C18.3492 18.7015 1.3457 21.9507 1.3457 30.1321V41.3663C1.3457 65.14 19.8197 84.4779 42.5313 84.4779C58.8347 84.4779 72.959 74.5078 79.6254 60.0845L86.8376 59.391C94.3415 58.6714 99.9998 52.1774 99.9998 44.2926C99.9998 37.2927 94.5624 31.6013 87.8754 31.6013L87.8752 31.6062ZM86.5294 55.9247L81.1089 56.4437C82.7879 51.7466 83.7129 46.67 83.7129 41.3665V35.0905H87.8752C92.7251 35.0905 96.6666 39.2207 96.6666 44.2929C96.6666 50.3683 92.3084 55.3621 86.5294 55.9202V55.9247Z" fill="#008083"/>
<path d="M77.8299 71.7522C76.9841 71.3553 76.0008 71.7478 75.6258 72.6244C75.2467 73.5011 75.6175 74.5347 76.4591 74.9316C79.8006 76.5104 81.7173 78.2767 81.7173 79.7814C81.7173 84.1166 66.809 90.1615 42.5273 90.1615C18.2445 90.1615 3.33731 84.1166 3.33731 79.7814C3.33731 78.2767 5.25393 76.5104 8.59546 74.9316C9.43709 74.5347 9.80789 73.5011 9.42876 72.6244C9.05378 71.7478 8.06636 71.3509 7.22468 71.7522C2.43319 74.0156 0 76.7154 0 79.7857C0 88.7963 21.9074 93.6549 42.5232 93.6549C63.1389 93.6549 85.0464 88.792 85.0464 79.7857C85.0464 76.7197 82.6173 74.0156 77.8258 71.7522H77.8299Z" fill="#008083"/>
<path d="M37.5841 24.3668C38.9382 25.7842 40.7173 26.4907 42.4964 26.4907C44.2672 26.4907 46.0379 25.7885 47.392 24.3842L54.7417 16.7519C57.375 14.0173 58.2249 10.018 56.9583 6.32396C55.75 2.79559 52.8251 0.392536 49.3378 0.0523374C46.9879 -0.191898 44.538 0.427416 42.538 1.72709C40.5298 0.423017 38.0674 -0.191953 35.7216 0.0566923C32.226 0.409965 29.3052 2.81312 28.097 6.33267C26.8345 10.0093 27.6762 13.9956 30.2886 16.7301L37.5841 24.3668ZM31.2343 7.51427C32.0135 5.24642 33.8093 3.75478 36.0508 3.53237C36.2883 3.5062 36.5341 3.49312 36.7758 3.49312C37.8341 3.49312 38.8924 3.75916 39.859 4.21274C38.2881 6.22769 37.4132 8.74418 37.4132 11.4046C37.4132 12.3684 38.159 13.1491 39.0798 13.1491C40.0006 13.1491 40.7464 12.3684 40.7464 11.4046C40.7464 8.99271 41.7797 6.74229 43.5796 5.22898C45.0545 3.9642 47.0794 3.32746 49.0128 3.53245C51.2418 3.75052 53.0376 5.23769 53.8167 7.50564C54.4625 9.38974 54.425 12.1636 52.3877 14.2788L45.038 21.9111C43.6255 23.3765 41.3381 23.3722 39.934 21.9024L32.6384 14.2657C30.6177 12.1505 30.5843 9.38973 31.226 7.51434L31.2343 7.51427Z" fill="#008083"/>
</svg>
