<svg width="90" height="140" viewBox="0 0 90 140" fill="none" xmlns="http://www.w3.org/2000/svg">
<path d="M89.7271 52.8031L66.9488 18.0616C66.6679 17.6364 66.2224 17.3783 65.7427 17.3783H54.6548V10.6897C54.6548 4.79054 50.3307 0 45.006 0C39.6812 0 35.3571 4.79054 35.3571 10.6897V17.3783H24.2692C23.7964 17.3783 23.3441 17.6289 23.0631 18.0616L0.284824 52.8031C-0.0441133 53.3042 -0.0920777 53.9723 0.161473 54.5189C0.415027 55.0731 0.928995 55.4224 1.49093 55.4224H5.45186L13.7644 123.735H9.75542C8.93993 123.735 8.26834 124.472 8.26834 125.383V137.743C8.26834 138.646 8.93307 139.39 9.75542 139.39H80.2446C81.0601 139.39 81.7317 138.654 81.7317 137.743V125.383C81.7317 124.479 81.0669 123.735 80.2446 123.735H76.2356L84.5481 55.4224H88.5091C89.071 55.4224 89.5781 55.0731 89.8385 54.5189C90.0921 53.9647 90.0441 53.3042 89.7152 52.8031H89.7271ZM38.3374 10.6974C38.3374 6.62034 41.332 3.30265 45.0121 3.30265C48.6922 3.30265 51.6868 6.62034 51.6868 10.6974V17.386H38.3442V10.6974H38.3374ZM78.7695 136.082H11.2487V127.017H78.7695V136.082ZM73.253 123.722H16.7793L8.46669 55.4086H14.1888L20.6921 117.094C20.7812 117.922 21.4185 118.552 22.1723 118.552H67.8885C68.6424 118.552 69.2797 117.922 69.3688 117.094L75.8721 55.4086H81.5942L73.2816 123.722H73.253ZM45.1697 96.6397C45.1148 96.6397 45.0669 96.617 45.012 96.617C44.9504 96.617 44.9092 96.6322 44.8544 96.6397C43.5729 96.5486 42.5587 95.3794 42.5587 93.937C42.5587 91.6821 44.0869 87.1648 45.012 86.6031C45.9439 87.1649 47.4652 91.6823 47.4652 93.937C47.4652 95.3719 46.4511 96.5488 45.1697 96.6397ZM54.3182 105.044V115.263H35.7187V105.044H54.3182ZM55.7984 101.742H46.4922V99.7145C48.7674 98.9932 50.4326 96.6852 50.4326 93.9368C50.4326 91.7503 48.7468 83.2774 44.9982 83.2774C41.2497 83.2774 39.5638 91.7427 39.5638 93.9368C39.5638 96.6852 41.2359 98.9932 43.5042 99.7145V101.742H34.198C33.3825 101.742 32.7109 102.478 32.7109 103.389V115.248H23.4527L17.1412 55.4072H72.8202L66.5087 115.248H57.2505V103.389C57.2505 102.486 56.5858 101.742 55.7634 101.742H55.7984ZM83.2713 52.1201H4.41567L25.0361 20.6808H64.9946L85.615 52.1201H83.2713Z" fill="#008083"/>
<path d="M57.9628 26.1839C57.257 26.647 57.024 27.6643 57.442 28.4388L66.8442 46.0298C67.1252 46.546 67.6186 46.8421 68.1257 46.8421C68.3861 46.8421 68.6465 46.7738 68.8795 46.6143C69.5854 46.1512 69.8184 45.1339 69.4003 44.3594L59.9982 26.7685C59.5801 25.9865 58.6618 25.7283 57.9628 26.1915L57.9628 26.1839Z" fill="#008083"/>
</svg>
