<svg width="52" height="80" viewBox="0 0 52 80" fill="none" xmlns="http://www.w3.org/2000/svg">
<path d="M51.4978 30.3057L38.4245 10.3662C38.2632 10.1222 38.0076 9.97408 37.7322 9.97408H31.3685V6.13522C31.3685 2.74947 28.8867 0 25.8306 0C22.7746 0 20.2928 2.74947 20.2928 6.13522V9.97408H13.929C13.6576 9.97408 13.398 10.1179 13.2368 10.3662L0.163472 30.3057C-0.0253183 30.5933 -0.0528469 30.9767 0.0926753 31.2905C0.2382 31.6086 0.533186 31.809 0.855699 31.809H3.12903L7.89993 71.0164H5.599C5.13097 71.0164 4.74551 71.439 4.74551 71.9619V79.0558C4.74551 79.5743 5.12703 80.0014 5.599 80.0014H46.0554C46.5234 80.0014 46.9089 79.5787 46.9089 79.0558V71.9619C46.9089 71.4434 46.5274 71.0164 46.0554 71.0164H43.7545L48.5254 31.809H50.7987C51.1212 31.809 51.4123 31.6085 51.5617 31.2905C51.7073 30.9724 51.6797 30.5933 51.4909 30.3057H51.4978ZM22.0033 6.13963C22.0033 3.79966 23.722 1.89551 25.8342 1.89551C27.9463 1.89551 29.665 3.79966 29.665 6.13963V9.97849H22.0072V6.13963H22.0033ZM45.2088 78.1024H6.45606V72.8996H45.2088V78.1024ZM42.0427 71.0085H9.63025L4.85935 31.8011H8.14349L11.876 67.2047C11.9271 67.6796 12.2929 68.0413 12.7255 68.0413H38.9638C39.3965 68.0413 39.7622 67.6796 39.8134 67.2047L43.5459 31.8011H46.83L42.0591 71.0085H42.0427ZM25.9246 55.4652C25.8931 55.4652 25.8656 55.4521 25.8341 55.4521C25.7987 55.4521 25.7751 55.4608 25.7436 55.4652C25.0082 55.4129 24.426 54.7419 24.426 53.914C24.426 52.6198 25.3031 50.0272 25.8341 49.7048C26.369 50.0272 27.2421 52.6199 27.2421 53.914C27.2421 54.7375 26.6601 55.413 25.9246 55.4652ZM31.1752 60.2888V66.1539H20.5003V60.2888H31.1752ZM32.0248 58.3934H26.6836V57.2299C27.9894 56.816 28.9452 55.4913 28.9452 53.9139C28.9452 52.659 27.9776 47.7961 25.8261 47.7961C23.6747 47.7961 22.7071 52.6546 22.7071 53.9139C22.7071 55.4913 23.6668 56.816 24.9687 57.2299V58.3934H19.6275C19.1595 58.3934 18.774 58.816 18.774 59.3389V66.1452H13.4604L9.83796 31.8003H41.7943L38.1718 66.1452H32.8582V59.3389C32.8582 58.8204 32.4767 58.3934 32.0047 58.3934H32.0248ZM47.7925 29.9137H2.53432L14.3692 11.8695H37.3029L49.1377 29.9137H47.7925Z" fill="white"/>
</svg>
