<svg width="101" height="112" viewBox="0 0 101 112" fill="none" xmlns="http://www.w3.org/2000/svg">
<path d="M95.0544 95.9946V73.9953C95.0678 59.9661 89.7591 46.7523 80.7065 37.3833V1.99987C80.7065 0.894945 79.9039 0 78.913 0H21.5217C20.5308 0 19.7283 0.894945 19.7283 1.99987V37.3833C15.0518 42.228 11.2989 48.1676 8.81048 54.8375C6.60895 60.7422 5.38044 67.2118 5.38044 74.0017V96.001C2.41227 96.001 0 98.6909 0 102.001V110C0 111.105 0.802583 112 1.79348 112H98.6413C99.6322 112 100.435 111.105 100.435 110V102.001C100.435 98.6909 98.0225 96.001 95.0544 96.001V95.9946ZM82.4994 95.9946V83.9954H91.4668V95.9946H82.4994ZM91.4668 73.9953V79.995H82.4994C82.616 74.1753 82.5398 67.4408 80.6521 62.1017L88.9783 58.2569C90.5879 63.1716 91.4668 68.4706 91.4668 73.9953ZM87.5929 54.5662L79.2712 58.4109C76.0967 51.0813 70.7655 45.1369 64.1922 41.5966L67.6401 32.3172C76.4013 36.8919 83.494 44.7965 87.5929 54.5662ZM39.5461 40.0672L36.0936 30.7778C44.8145 27.0981 55.6113 27.0981 64.3324 30.7728L60.8845 40.0572C54.2217 37.3474 46.2631 37.3125 39.5461 40.0672ZM23.3146 3.99911H77.119V34.0222C69.3622 27.5476 60.1392 24.0178 50.2162 23.9979C40.2939 24.0229 31.0705 27.5526 23.3135 34.0222L23.3146 3.99911ZM32.7842 32.3224L36.8868 43.3618C37.1737 44.0817 37.8373 44.5817 38.5457 44.5967C57.3322 35.5973 79.056 50.9163 78.9171 73.9951V95.9944H67.7841C70.8778 89.4498 70.6268 81.0053 67.1474 74.7004C66.7394 73.9504 65.9412 73.5754 65.1745 73.7954C63.3451 74.2904 64.1881 76.6353 62.9506 77.8802C61.5516 79.6251 60.1572 78.6451 59.7537 78.2901C59.0632 77.6952 58.0364 76.0902 59.1708 74.1703C61.9865 69.0656 58.552 61.9561 53.1357 61.8011C51.9834 61.7061 51.2705 60.3161 51.831 59.1463C52.7143 57.3614 51.2661 55.5165 49.5937 56.0765C44.4419 57.1714 41.9625 64.096 44.9082 68.9704C45.4104 69.8254 46.0784 71.4903 44.8589 73.0601C44.025 74.1551 42.9982 74.5 41.7293 74.1101C40.6621 73.7751 39.864 72.6851 39.7429 71.4052C39.7116 70.6303 39.3125 69.9103 38.6534 69.6003C37.9988 69.2853 37.2365 69.4303 36.712 69.9753C32.7618 74.11 30.4975 79.9447 30.4975 85.9947C30.4975 89.5195 31.2418 92.9193 32.6631 95.9941H21.5301V73.9948C21.5301 64.3954 25.3457 55.3861 31.9951 49.2809C33.802 47.616 31.5288 44.5362 29.7129 46.191C26.0318 49.5708 23.1353 53.7405 21.131 58.3902L12.8451 54.5654C16.9432 44.796 24.0319 36.8961 32.7886 32.3217L32.7842 32.3224ZM11.4553 58.2562L19.7502 62.086C18.5665 65.8657 17.9343 69.8804 17.9343 73.9952V79.9948H8.96693C8.78759 72.7853 9.1103 64.8209 11.4553 58.2562ZM8.96682 83.9941H17.9342V95.9933H8.96682V83.9941ZM96.8467 107.993H3.58581V101.993C3.58581 100.888 4.38839 99.9931 5.37929 99.9931H55.5783C57.9368 99.9431 57.9368 96.0384 55.5783 95.9933H36.8228C32.9893 89.8738 33.2359 81.0989 37.3026 75.2049C38.1276 76.5197 39.3382 77.5147 40.755 77.9646C46.4986 80.0096 51.5293 72.34 47.9155 66.8154C46.9022 65.0455 46.9874 62.8856 48.18 61.3857C48.7181 63.7856 50.5519 65.5704 52.8655 65.8054C55.6588 65.7604 57.4972 69.4951 56.1116 72.075C52.1481 78.9996 60.2591 86.9438 65.6081 80.5644C66.1058 82.3093 66.3613 84.1392 66.3613 85.9991C66.3972 90.0338 65.1239 93.7636 63.03 97.0034C62.3036 98.2434 63.2407 100.018 64.5499 99.9982H95.0569C96.0478 99.9982 96.8504 100.893 96.8504 101.998V107.998L96.8467 107.993Z" fill="#008083"/>
</svg>
