<svg width="60" height="67" viewBox="0 0 60 67" fill="none" xmlns="http://www.w3.org/2000/svg">
<path d="M56.7857 56.8501V43.8216C56.7938 35.5132 53.6223 27.6877 48.2143 22.1392V1.18437C48.2143 0.530006 47.7348 0 47.1429 0H12.8571C12.2652 0 11.7857 0.530006 11.7857 1.18437V22.1392C8.99198 25.0083 6.74997 28.5259 5.26341 32.476C3.94821 35.9728 3.21429 39.8043 3.21429 43.8254V56.8539C1.4411 56.8539 0 58.4469 0 60.407V65.1445C0 65.7988 0.479465 66.3288 1.07143 66.3288H58.9286C59.5205 66.3288 60 65.7988 60 65.1445V60.407C60 58.4469 58.5589 56.8539 56.7857 56.8539V56.8501ZM49.2854 56.8501V49.7439H54.6425V56.8501H49.2854ZM54.6425 43.8216V47.3747H49.2854C49.355 43.9282 49.3095 39.9399 48.1818 36.778L53.1559 34.501C54.1175 37.4116 54.6425 40.5498 54.6425 43.8216ZM52.3282 32.3153L47.3568 34.5922C45.4604 30.2515 42.2755 26.731 38.3486 24.6344L40.4084 19.1389C45.6423 21.8482 49.8795 26.5295 52.3282 32.3153ZM23.6249 23.7287L21.5624 18.2273C26.7723 16.0481 33.2223 16.0481 38.4324 18.2243L36.3726 23.7228C32.3922 22.1179 27.6377 22.0972 23.6249 23.7287ZM13.9282 2.36836H46.0711V20.1487C41.4372 16.3143 35.9273 14.2239 29.9993 14.212C24.0717 14.2269 18.5616 16.3172 13.9275 20.1487L13.9282 2.36836ZM19.5854 19.1421L22.0363 25.6798C22.2077 26.1061 22.6041 26.4022 23.0273 26.4111C34.2504 21.0815 47.2282 30.1537 47.1453 43.8215V56.85H40.4944C42.3426 52.9741 42.1926 47.9731 40.114 44.2392C39.8703 43.795 39.3935 43.573 38.9354 43.7033C37.8425 43.9964 38.3461 45.3851 37.6068 46.1223C36.7711 47.1557 35.9381 46.5753 35.697 46.3651C35.2845 46.0128 34.6711 45.0623 35.3488 43.9253C37.0309 40.9022 34.9791 36.6917 31.7434 36.5999C31.055 36.5437 30.6291 35.7205 30.964 35.0277C31.4917 33.9707 30.6265 32.8781 29.6274 33.2097C26.5497 33.8582 25.0685 37.959 26.8283 40.8458C27.1283 41.3521 27.5274 42.3381 26.7988 43.2678C26.3006 43.9162 25.6872 44.1205 24.9292 43.8896C24.2917 43.6912 23.8149 43.0457 23.7425 42.2877C23.7238 41.8288 23.4854 41.4024 23.0916 41.2188C22.7006 41.0323 22.2452 41.1181 21.9318 41.4409C19.572 43.8896 18.2193 47.345 18.2193 50.9279C18.2193 53.0154 18.6639 55.0289 19.513 56.8498H12.8622V43.8213C12.8622 38.1364 15.1416 32.8008 19.114 29.1852C20.1934 28.1992 18.8354 26.3753 17.7505 27.3553C15.5515 29.3569 13.8211 31.8263 12.6237 34.5799L7.6737 32.3148C10.1219 26.5292 14.3567 21.8507 19.588 19.1416L19.5854 19.1421ZM6.84343 34.5006L11.7988 36.7686C11.0917 39.0071 10.714 41.3847 10.714 43.8216V47.3747H5.35687C5.24973 43.105 5.44251 38.3883 6.84343 34.5006ZM5.3568 49.7431H10.7139V56.8493H5.3568V49.7431ZM57.8565 63.9555H2.14217V60.4024C2.14217 59.7481 2.62164 59.2181 3.2136 59.2181H33.2026C34.6116 59.1885 34.6116 56.876 33.2026 56.8493H21.9981C19.7079 53.2252 19.8552 48.0285 22.2847 44.538C22.7775 45.3166 23.5007 45.9059 24.3472 46.1723C27.7784 47.3834 30.7838 42.8413 28.6248 39.5695C28.0195 38.5214 28.0704 37.2422 28.7829 36.3539C29.1043 37.7752 30.1998 38.8322 31.582 38.9714C33.2507 38.9447 34.349 41.1565 33.5212 42.6843C31.1534 46.7853 35.9989 51.49 39.1944 47.712C39.4917 48.7454 39.6444 49.8291 39.6444 50.9305C39.6659 53.3199 38.9052 55.5288 37.6543 57.4475C37.2204 58.1819 37.7802 59.233 38.5623 59.2211H56.7872C57.3792 59.2211 57.8587 59.7511 57.8587 60.4055V63.9586L57.8565 63.9555Z" fill="white"/>
</svg>
