<svg width="54" height="78" viewBox="0 0 54 78" fill="none" xmlns="http://www.w3.org/2000/svg">
<path d="M53.2372 24.6116C53.9797 23.3764 54.1618 21.8573 53.7346 20.4673C53.3072 19.0735 52.3125 17.9563 51.0235 17.4143L47.8675 16.098C46.582 15.5671 45.7063 14.3024 45.6258 12.8533L45.4296 9.30265C45.3421 7.84252 44.6415 6.50038 43.5171 5.64133C42.3928 4.77854 40.9636 4.48721 39.6185 4.8486L36.3225 5.77407C34.9879 6.1391 33.5728 5.65608 32.6971 4.53519L30.5569 1.78087C29.6707 0.652617 28.3537 0 26.9631 0C25.5725 0 24.2521 0.652627 23.3658 1.78087L21.2257 4.53519C20.3605 5.64135 18.963 6.12435 17.6389 5.77407L14.3604 4.87072V4.86703C13.0153 4.50938 11.5862 4.79698 10.4618 5.65976C9.3409 6.51887 8.6404 7.86464 8.55279 9.32108L8.30059 12.8828C8.21303 14.3097 7.35484 15.5597 6.0939 16.098L2.93796 17.3958C1.64895 17.9378 0.654155 19.055 0.226877 20.4451C-0.200455 21.8389 -0.0183172 23.3579 0.724268 24.5931L2.54565 27.5908C3.29173 28.8113 3.29173 30.3819 2.54565 31.6024L0.724268 34.6C-0.0183082 35.8352 -0.20041 37.3544 0.226877 38.748C0.654209 40.1381 1.64895 41.2553 2.93796 41.7973L6.0939 43.0842V43.0879C7.37592 43.6188 8.25154 44.8834 8.33566 46.3325L8.53181 49.8906C8.61938 51.3507 9.31993 52.6929 10.4443 53.5519C11.5687 54.4147 12.9978 54.706 14.3429 54.3446L17.639 53.4597C18.9735 53.091 20.3851 53.5703 21.2643 54.6876L23.4045 57.4493V57.4529C24.2907 58.5775 25.6077 59.2301 26.9983 59.2301C28.3889 59.2301 29.7094 58.5775 30.5956 57.4529L32.7357 54.6913V54.6876C33.6044 53.5851 35.002 53.1095 36.3225 53.4597L39.6011 54.3631C40.9461 54.7244 42.3753 54.4331 43.4997 53.574C44.6205 52.7112 45.321 51.3692 45.4086 49.909L45.6608 46.351C45.7484 44.9019 46.6206 43.6372 47.9026 43.1063L51.0585 41.8195H51.062C52.351 41.2775 53.3458 40.1566 53.7731 38.7665C54.2005 37.3764 54.0183 35.8574 53.2757 34.6222L51.4088 31.6245L51.4053 31.6208C50.6592 30.4004 50.6592 28.8334 51.4053 27.6092L53.2372 24.6116ZM50.435 32.2624L52.2564 35.2601C52.8168 36.1856 52.9604 37.3286 52.6417 38.3757C52.3229 39.4229 51.5803 40.2672 50.6136 40.6765L47.4576 41.9744H47.4541C45.7728 42.6786 44.624 44.3415 44.5119 46.2441L44.3157 49.8021C44.2562 50.9156 43.7238 51.9369 42.8691 52.5932C42.0109 53.2459 40.9215 53.4597 39.8988 53.1758L36.6307 52.2725V52.2688C34.8724 51.7931 33.0124 52.4273 31.8565 53.9022L29.7094 56.6639C29.0368 57.523 28.0385 58.0208 26.9807 58.0208C25.9229 58.0208 24.9246 57.523 24.252 56.6639L22.1049 53.9022C21.2187 52.7703 19.9017 52.114 18.5076 52.114C18.1118 52.1177 17.716 52.1693 17.3307 52.2688L14.0627 53.1722V53.1759C13.0399 53.4598 11.9505 53.2459 11.0923 52.5933C10.2377 51.937 9.70523 50.9157 9.64569 49.8022L9.44953 46.2441C9.33744 44.3416 8.18859 42.6787 6.50728 41.9744L3.34784 40.6766C2.36353 40.2747 1.59999 39.4303 1.27422 38.3721C0.948465 37.3102 1.09208 36.1561 1.66653 35.2197L3.53346 32.222H3.53696C4.51419 30.6107 4.51419 28.5459 3.53696 26.9309L1.66653 23.9628C1.09209 23.03 0.94847 21.8722 1.27422 20.814C1.59998 19.7558 2.36354 18.9078 3.34784 18.5059L6.50378 17.208H6.50729C8.1921 16.5038 9.34104 14.8372 9.44954 12.931L9.6457 9.38029C9.70524 8.27045 10.2377 7.24546 11.0923 6.58916C11.947 5.93286 13.0399 5.71899 14.0627 5.99922L17.3307 6.90257C19.0855 7.38558 20.9491 6.75139 22.1049 5.28018L24.2521 2.52586V2.52955C24.9211 1.66307 25.9229 1.16164 26.9807 1.16164C28.0386 1.16164 29.0404 1.66309 29.7094 2.52955L31.8565 5.28387V5.28018C33.0125 6.75503 34.8724 7.39293 36.6307 6.91361L39.8988 6.01026C40.9216 5.72635 42.0145 5.94389 42.8691 6.6002C43.7238 7.25283 44.2562 8.27781 44.3158 9.39134L44.5119 12.942C44.6205 14.8483 45.7693 16.5149 47.4542 17.2191L50.6101 18.5169H50.6136C51.5944 18.9188 52.3545 19.7632 52.6802 20.8177C53.006 21.8759 52.8659 23.03 52.2949 23.9628L50.4735 26.9605C49.4892 28.5754 49.4892 30.6476 50.4735 32.2626L50.435 32.2624ZM26.9809 9.82293C21.993 9.82293 17.2113 11.9098 13.6846 15.6228C10.1608 19.332 8.17829 24.3686 8.17829 29.6152C8.17829 34.8657 10.1608 39.8991 13.6846 43.6115C17.2118 47.3245 21.993 49.4077 26.9809 49.4077C31.9687 49.4077 36.7504 47.3245 40.2771 43.6115C43.8009 39.8985 45.7834 34.8656 45.7834 29.6152C45.7799 24.3684 43.7974 19.3389 40.2701 15.6265C36.7464 11.9173 31.965 9.83029 26.9809 9.82293ZM26.9809 48.2286C22.2907 48.2286 17.7933 46.2671 14.4799 42.7791C11.1629 39.2874 9.29944 34.5531 9.29944 29.6163C9.29944 24.6829 11.1629 19.9488 14.4799 16.4573C17.7935 12.9656 22.291 11.004 26.9809 11.004C31.6707 11.004 36.1685 12.9656 39.4818 16.4573C42.7988 19.949 44.6623 24.6832 44.6623 29.6163C44.6588 34.5534 42.7919 39.2838 39.4783 42.7725C36.1647 46.2642 31.6672 48.2257 26.9801 48.2294L26.9809 48.2286ZM39.5239 25.7816C39.8637 27.0278 40.0388 28.322 40.0388 29.6162C40.0388 33.2665 38.6622 36.7692 36.2104 39.3498C33.7549 41.9308 30.4308 43.3835 26.9636 43.3835C23.4958 43.3835 20.1683 41.9307 17.7168 39.3498C15.2653 36.7688 13.8848 33.266 13.8848 29.6162C13.8848 25.9659 15.2649 22.4668 17.7168 19.8826C20.1687 17.3016 23.4963 15.8526 26.9636 15.8526C28.1195 15.8489 29.2719 16.0112 30.3892 16.3356C30.5329 16.3725 30.6555 16.472 30.729 16.6048C30.8026 16.7412 30.8236 16.9035 30.7815 17.0509C30.7045 17.368 30.3998 17.5561 30.102 17.475C29.0827 17.1984 28.0319 17.0657 26.9811 17.0804C22.1508 17.0804 17.797 20.1481 15.9507 24.8456C14.1048 29.543 15.1311 34.952 18.5497 38.5436C21.9684 42.1348 27.1104 43.2041 31.5698 41.2499C36.0289 39.2958 38.9291 34.7016 38.9186 29.6172C38.9186 28.43 38.7609 27.2501 38.4527 26.107C38.4072 25.9595 38.4247 25.7973 38.4947 25.6609C38.5648 25.5244 38.6839 25.4249 38.824 25.3806C39.1252 25.2922 39.437 25.4691 39.5245 25.7825L39.5239 25.7816ZM29.1204 22.4005L24.9906 28.3995L24.3566 27.769C22.8084 26.2499 20.381 26.3384 18.9379 27.9644C17.4947 29.5942 17.5788 32.1493 19.1235 33.6684L22.9345 37.4146C23.642 38.1152 24.5773 38.506 25.5511 38.506H25.9259C27.0188 38.388 28.0135 37.787 28.6615 36.8541L35.3307 27.1602C35.9787 26.2937 36.2625 25.1913 36.1189 24.0999C35.9752 23.0122 35.4183 22.0277 34.5706 21.3825C33.7229 20.7372 32.6651 20.4828 31.6354 20.6782C30.6056 20.8736 29.6983 21.5041 29.1204 22.4186L29.1204 22.4005ZM31.7895 21.9986C32.8648 21.8105 33.9402 22.3194 34.5217 23.2891C35.1031 24.2588 35.0751 25.5014 34.4516 26.4416L27.7824 36.1355C27.327 36.7992 26.6195 37.2232 25.8453 37.3043C25.0712 37.3854 24.3006 37.1163 23.7297 36.5595L19.8907 32.8134C18.7908 31.7257 18.7383 29.9079 19.7681 28.7538C20.8014 27.596 22.5282 27.537 23.6281 28.6247L24.7315 29.7161H24.728C24.8366 29.8083 24.9732 29.8599 25.1133 29.8636C25.2745 29.8451 25.4181 29.7566 25.5126 29.6165L30.0066 23.0792C30.441 22.4819 31.0819 22.0907 31.7895 21.9986ZM2.9265 71.583C2.82141 72.1029 3.00356 72.6449 3.39586 72.9841C3.79168 73.3196 4.33112 73.4008 4.79696 73.1832L9.24191 70.912C10.2858 70.3737 11.5432 70.6797 12.2578 71.642L15.3227 75.7237V75.72C15.645 76.1514 16.1774 76.3468 16.6852 76.2251C17.1931 76.1035 17.5889 75.6868 17.7045 75.1522L20.7029 61.3882V61.3845C20.773 61.0674 21.0742 60.8683 21.3754 60.942C21.6767 61.0158 21.8658 61.3328 21.7958 61.6499L18.7974 75.414V75.4177C18.5907 76.3985 17.8621 77.1654 16.9304 77.3829C16.7483 77.4234 16.5627 77.4493 16.377 77.4529C15.6239 77.4566 14.9094 77.0916 14.4435 76.4685L11.3786 72.3868H11.3821C10.9828 71.8669 10.2998 71.7047 9.72879 71.996L5.28384 74.2672H5.28034C4.42217 74.7133 3.39233 74.5917 2.64628 73.9612C1.90019 73.327 1.56745 72.2946 1.79861 71.3175L5.49751 54.6811C5.52553 54.5263 5.6131 54.3898 5.73569 54.305C5.86178 54.2202 6.01591 54.1944 6.15952 54.2276C6.46076 54.3013 6.65341 54.6147 6.59036 54.9355L2.9265 71.583ZM50.5637 73.0172C50.9806 72.6817 51.1697 72.1176 51.0401 71.583L47.4182 54.9353C47.3517 54.6145 47.5443 54.3011 47.8456 54.2274C47.9927 54.1942 48.1433 54.22 48.2694 54.3048C48.3955 54.3896 48.4796 54.526 48.5111 54.6809L52.1259 71.3286V71.3249C52.3536 72.3057 52.0243 73.338 51.2747 73.9686C50.5286 74.6028 49.5023 74.7208 48.6407 74.2746L44.1957 72.0034C43.6248 71.7158 42.9383 71.878 42.5424 72.3979L39.4774 76.4795C39.0116 77.1027 38.297 77.4641 37.544 77.4604C37.3583 77.4567 37.1727 77.4345 36.994 77.394C36.0588 77.1764 35.3302 76.4095 35.1236 75.4251L32.1252 61.661C32.0377 61.3439 32.2128 61.0121 32.514 60.9199C32.8153 60.8277 33.1305 61.0084 33.2181 61.3255L36.2165 75.0896V75.0933C36.3321 75.6279 36.7314 76.0445 37.2393 76.1662C37.7472 76.2879 38.276 76.0925 38.5983 75.6611L41.6632 71.5794V71.5831C42.3988 70.6134 43.6843 70.3332 44.7281 70.912L49.1731 73.1833C49.6284 73.4082 50.1609 73.3418 50.5567 73.0173L50.5637 73.0172Z" fill="white"/>
</svg>
