<svg width="102" height="147" viewBox="0 0 102 147" fill="none" xmlns="http://www.w3.org/2000/svg">
<mask id="path-1-outside-1_75_151" maskUnits="userSpaceOnUse" x="0" y="0" width="102" height="147" fill="black">
<rect fill="white" width="102" height="147"/>
<path d="M99.5873 46.9422C100.962 44.6365 101.3 41.8008 100.508 39.2061C99.7171 36.6043 97.875 34.5188 95.4879 33.5071L89.6436 31.05C87.263 30.0589 85.6413 27.6982 85.4922 24.9932L85.1289 18.3652C84.9668 15.6396 83.6694 13.1342 81.5873 11.5306C79.5051 9.92006 76.8585 9.37624 74.3677 10.0508L68.2638 11.7784C65.7924 12.4598 63.1719 11.5582 61.5502 9.4658L57.5869 4.32433C55.9458 2.21823 53.5069 1 50.9317 1C48.3565 1 45.9112 2.21825 44.2701 4.32433L40.3068 9.4658C38.7047 11.5307 36.1166 12.4323 33.6646 11.7784L27.5933 10.0921V10.0852C25.1024 9.41761 22.4558 9.95447 20.3737 11.565C18.298 13.1687 17.0007 15.6808 16.8385 18.3996L16.3715 25.0483C16.2093 27.7118 14.6201 30.0451 12.285 31.0499L6.44067 33.4726C4.05362 34.4844 2.2114 36.5699 1.42014 39.1647C0.628788 41.7665 0.966079 44.602 2.34124 46.9078L5.71416 52.5035C7.0958 54.7817 7.0958 57.7136 5.71416 59.9919L2.34124 65.5876C0.966096 67.8933 0.628871 70.7291 1.42014 73.3306C2.2115 75.9255 4.05362 78.0108 6.44067 79.0227L12.285 81.4248V81.4317C14.6591 82.4228 16.2806 84.7835 16.4364 87.4885L16.7996 94.1303C16.9618 96.8559 18.2591 99.3613 20.3413 100.965C22.4235 102.575 25.0701 103.119 27.5609 102.445L33.6648 100.793C36.1362 100.105 38.7502 100.999 40.3784 103.085L44.3417 108.24V108.247C45.9827 110.346 48.4216 111.564 50.9968 111.564C53.572 111.564 56.0174 110.346 57.6585 108.247L61.6217 103.092V103.085C63.2304 101.027 65.8185 100.139 68.264 100.793L74.3353 102.479C76.8262 103.154 79.4727 102.61 81.5549 101.006C83.6306 99.3956 84.9278 96.8904 85.0901 94.1647L85.5571 87.5229C85.7193 84.8179 87.3344 82.4572 89.7085 81.4661L95.5528 79.064H95.5593C97.9464 78.0522 99.7886 75.9599 100.58 73.3651C101.371 70.7702 101.034 67.9346 99.6588 65.6289L96.2015 60.0332L96.195 60.0263C94.8134 57.7481 94.8134 54.823 96.195 52.5379L99.5873 46.9422ZM94.3981 61.224L97.771 66.8197C98.8089 68.5473 99.0748 70.6809 98.4845 72.6357C97.8943 74.5904 96.5191 76.1665 94.7289 76.9305L88.8845 79.3532H88.878C85.7645 80.6678 83.637 83.7719 83.4294 87.3234L83.0662 93.9652C82.9559 96.0438 81.9699 97.9502 80.3872 99.1753C78.798 100.394 76.7806 100.793 74.8866 100.263L68.8347 98.5765V98.5697C65.5785 97.6818 62.134 98.8656 59.9936 101.619L56.0174 106.774C54.7719 108.378 52.9232 109.307 50.9643 109.307C49.0053 109.307 47.1566 108.378 45.9112 106.774L41.935 101.619C40.2939 99.5058 37.855 98.2807 35.2733 98.2807C34.5403 98.2876 33.8074 98.3839 33.0939 98.5698L27.042 100.256V100.263C25.1479 100.793 23.1305 100.394 21.5414 99.1754C19.9586 97.9503 18.9726 96.0439 18.8624 93.9653L18.4991 87.3235C18.2916 83.772 16.1641 80.6679 13.0505 79.3533L7.1997 76.9306C5.37691 76.1804 3.96294 74.6042 3.35966 72.6289C2.75642 70.6467 3.02237 68.4923 4.08616 66.7442L7.54344 61.1485H7.54993C9.3596 58.1408 9.3596 54.2865 7.54993 51.2717L4.08617 45.7312C3.02238 43.9898 2.75643 41.8287 3.35967 39.8534C3.96292 37.878 5.37692 36.295 7.19971 35.5448L13.044 33.1221H13.0505C16.1706 31.8075 18.2982 28.6965 18.4992 25.1382L18.8624 18.5101C18.9727 16.4384 19.9586 14.525 21.5414 13.2999C23.1241 12.0748 25.1479 11.6756 27.042 12.1987L33.0939 13.885C36.3436 14.7866 39.7946 13.6028 41.935 10.8565L45.9112 5.71499V5.72188C47.1502 4.10443 49.0053 3.16841 50.9643 3.16841C52.9233 3.16841 54.7784 4.10447 56.0174 5.72188L59.9936 10.8633V10.8565C62.1342 13.6096 65.5785 14.8003 68.8347 13.9056L74.8866 12.2193C76.7806 11.6893 78.8045 12.0954 80.3872 13.3205C81.9699 14.5388 82.9559 16.4521 83.0662 18.5307L83.4295 25.1588C83.6305 28.7171 85.758 31.8282 88.8781 33.1427L94.7224 35.5654H94.7289C96.5452 36.3156 97.9527 37.8917 98.556 39.8602C99.1592 41.8356 98.8998 43.99 97.8425 45.7312L94.4695 51.3269C92.6467 54.3414 92.6467 58.2095 94.4695 61.2243L94.3981 61.224ZM50.9646 19.3364C41.7277 19.3364 32.8728 23.2319 26.3418 30.1629C19.8163 37.0869 16.145 46.4887 16.145 56.2825C16.145 66.0835 19.8163 75.4793 26.3418 82.4092C32.8738 89.3401 41.7279 93.2288 50.9646 93.2288C60.2012 93.2288 69.0563 89.3401 75.5873 82.4092C82.1128 75.4783 85.7841 66.0834 85.7841 56.2825C85.7776 46.4883 82.1063 37.0998 75.5743 30.1699C69.0489 23.2459 60.1944 19.3501 50.9646 19.3364ZM50.9646 91.0279C42.279 91.0279 33.9505 87.3664 27.8147 80.8553C21.672 74.3374 18.2212 65.5 18.2212 56.2845C18.2212 47.0753 21.672 38.2382 27.8147 31.7206C33.951 25.2027 42.2797 21.5411 50.9646 21.5411C59.6494 21.5411 67.9786 25.2027 74.1144 31.7206C80.2571 38.2386 83.7079 47.076 83.7079 56.2845C83.7014 65.5005 80.2442 74.3307 74.1079 80.843C67.9716 87.3609 59.643 91.0225 50.9631 91.0293L50.9646 91.0279ZM74.1924 49.1262C74.8216 51.4526 75.146 53.8684 75.146 56.2843C75.146 63.0982 72.5967 69.6368 68.0562 74.4538C63.5091 79.2718 57.3534 81.9835 50.9325 81.9835C44.5108 81.9835 38.3487 79.2716 33.8089 74.4538C29.2691 69.636 26.7126 63.0973 26.7126 56.2843C26.7126 49.4703 29.2684 42.9387 33.8089 38.1147C38.3495 33.2967 44.5117 30.5919 50.9325 30.5919C53.0732 30.585 55.2071 30.8879 57.2764 31.4936C57.5423 31.5624 57.7694 31.7482 57.9056 31.996C58.0418 32.2507 58.0807 32.5535 58.0029 32.8288C57.8602 33.4207 57.2958 33.7718 56.7445 33.6203C54.8569 33.1041 52.9109 32.8564 50.9649 32.8839C42.02 32.8839 33.9575 38.6103 30.5384 47.379C27.12 56.1477 29.0205 66.2446 35.3514 72.9489C41.6822 79.6527 51.2045 81.6487 59.4627 78.0009C67.7201 74.353 73.0908 65.7771 73.0714 56.2862C73.0714 54.07 72.7795 51.8675 72.2087 49.7337C72.1244 49.4584 72.1568 49.1556 72.2866 48.9009C72.4163 48.6462 72.6368 48.4604 72.8963 48.3778C73.4541 48.2126 74.0314 48.543 74.1936 49.128L74.1924 49.1262ZM54.9266 42.8148L47.2789 54.0131L46.1049 52.8361C43.2378 50.0004 38.7426 50.1657 36.0701 53.2009C33.3976 56.2431 33.5534 61.0128 36.4139 63.8486L43.4713 70.8415C44.7816 72.1493 46.5134 72.8787 48.3168 72.8787H49.0109C51.0347 72.6585 52.8768 71.5366 54.0769 69.7953L66.4273 51.6997C67.6273 50.0822 68.1528 48.0244 67.8868 45.987C67.6208 43.9567 66.5895 42.1189 65.0197 40.9144C63.4499 39.71 61.491 39.235 59.584 39.5998C57.677 39.9646 55.9968 41.1416 54.9266 42.8486L54.9266 42.8148ZM59.8695 42.0646C61.8608 41.7136 63.8521 42.6634 64.929 44.4736C66.0058 46.2836 65.9539 48.6033 64.7993 50.3582L52.4489 68.4538C51.6056 69.6927 50.2953 70.4841 48.8617 70.6357C47.4282 70.7871 46.0011 70.2846 44.9438 69.2453L37.8347 62.2524C35.7978 60.2221 35.7005 56.8288 37.6076 54.6744C39.5211 52.5132 42.719 52.4031 44.7558 54.4336L46.7991 56.4708H46.7926C46.9937 56.6428 47.2467 56.7392 47.5062 56.7461C47.8046 56.7117 48.0705 56.5465 48.2456 56.2849L56.5679 44.0818C57.3722 42.9668 58.5591 42.2365 59.8695 42.0646ZM6.41944 134.623C6.22483 135.594 6.56214 136.606 7.28864 137.239C8.02162 137.865 9.0206 138.017 9.88326 137.61L18.1146 133.371C20.0477 132.366 22.3763 132.937 23.6996 134.734L29.3754 142.353V142.346C29.9722 143.151 30.9581 143.516 31.8986 143.289C32.8392 143.062 33.5721 142.284 33.7862 141.286L39.3387 115.593V115.586C39.4685 114.994 40.0263 114.622 40.5841 114.76C41.142 114.898 41.4923 115.489 41.3625 116.081L35.81 141.775V141.782C35.4273 143.612 34.078 145.044 32.3527 145.45C32.0154 145.526 31.6716 145.574 31.3278 145.581C29.9332 145.588 28.61 144.906 27.7473 143.743L22.0715 136.124H22.078C21.3385 135.153 20.0737 134.85 19.0163 135.394L10.7849 139.634H10.7784C9.1892 140.467 7.28209 140.24 5.90051 139.063C4.51888 137.879 3.90269 135.952 4.33077 134.128L11.1806 103.073C11.2325 102.784 11.3946 102.529 11.6216 102.371C11.8552 102.212 12.1406 102.164 12.4065 102.226C12.9644 102.364 13.3211 102.949 13.2044 103.548L6.41944 134.623ZM94.6366 137.301C95.4084 136.674 95.7587 135.621 95.5187 134.623L88.8116 103.547C88.6883 102.948 89.0451 102.363 89.6029 102.226C89.8754 102.164 90.1543 102.212 90.3878 102.37C90.6213 102.529 90.777 102.783 90.8354 103.072L97.5294 134.148V134.142C97.951 135.972 97.3413 137.899 95.9532 139.076C94.5715 140.26 92.6709 140.481 91.0753 139.648L82.8439 135.408C81.7866 134.871 80.5153 135.174 79.7822 136.145L74.1064 143.764C73.2437 144.927 71.9204 145.601 70.5259 145.595C70.1821 145.588 69.8383 145.546 69.5075 145.471C67.7755 145.065 66.4263 143.633 66.0437 141.795L60.4912 116.102C60.329 115.51 60.6533 114.891 61.2112 114.719C61.769 114.547 62.3528 114.884 62.515 115.476L68.0676 141.169V141.176C68.2816 142.174 69.0211 142.952 69.9616 143.179C70.9021 143.406 71.8815 143.041 72.4783 142.236L78.1541 134.617V134.624C79.5163 132.813 81.8968 132.29 83.8299 133.371L92.0613 137.611C92.9045 138.03 93.8905 137.906 94.6235 137.301L94.6366 137.301Z"/>
</mask>
<path d="M99.5873 46.9422C100.962 44.6365 101.3 41.8008 100.508 39.2061C99.7171 36.6043 97.875 34.5188 95.4879 33.5071L89.6436 31.05C87.263 30.0589 85.6413 27.6982 85.4922 24.9932L85.1289 18.3652C84.9668 15.6396 83.6694 13.1342 81.5873 11.5306C79.5051 9.92006 76.8585 9.37624 74.3677 10.0508L68.2638 11.7784C65.7924 12.4598 63.1719 11.5582 61.5502 9.4658L57.5869 4.32433C55.9458 2.21823 53.5069 1 50.9317 1C48.3565 1 45.9112 2.21825 44.2701 4.32433L40.3068 9.4658C38.7047 11.5307 36.1166 12.4323 33.6646 11.7784L27.5933 10.0921V10.0852C25.1024 9.41761 22.4558 9.95447 20.3737 11.565C18.298 13.1687 17.0007 15.6808 16.8385 18.3996L16.3715 25.0483C16.2093 27.7118 14.6201 30.0451 12.285 31.0499L6.44067 33.4726C4.05362 34.4844 2.2114 36.5699 1.42014 39.1647C0.628788 41.7665 0.966079 44.602 2.34124 46.9078L5.71416 52.5035C7.0958 54.7817 7.0958 57.7136 5.71416 59.9919L2.34124 65.5876C0.966096 67.8933 0.628871 70.7291 1.42014 73.3306C2.2115 75.9255 4.05362 78.0108 6.44067 79.0227L12.285 81.4248V81.4317C14.6591 82.4228 16.2806 84.7835 16.4364 87.4885L16.7996 94.1303C16.9618 96.8559 18.2591 99.3613 20.3413 100.965C22.4235 102.575 25.0701 103.119 27.5609 102.445L33.6648 100.793C36.1362 100.105 38.7502 100.999 40.3784 103.085L44.3417 108.24V108.247C45.9827 110.346 48.4216 111.564 50.9968 111.564C53.572 111.564 56.0174 110.346 57.6585 108.247L61.6217 103.092V103.085C63.2304 101.027 65.8185 100.139 68.264 100.793L74.3353 102.479C76.8262 103.154 79.4727 102.61 81.5549 101.006C83.6306 99.3956 84.9278 96.8904 85.0901 94.1647L85.5571 87.5229C85.7193 84.8179 87.3344 82.4572 89.7085 81.4661L95.5528 79.064H95.5593C97.9464 78.0522 99.7886 75.9599 100.58 73.3651C101.371 70.7702 101.034 67.9346 99.6588 65.6289L96.2015 60.0332L96.195 60.0263C94.8134 57.7481 94.8134 54.823 96.195 52.5379L99.5873 46.9422ZM94.3981 61.224L97.771 66.8197C98.8089 68.5473 99.0748 70.6809 98.4845 72.6357C97.8943 74.5904 96.5191 76.1665 94.7289 76.9305L88.8845 79.3532H88.878C85.7645 80.6678 83.637 83.7719 83.4294 87.3234L83.0662 93.9652C82.9559 96.0438 81.9699 97.9502 80.3872 99.1753C78.798 100.394 76.7806 100.793 74.8866 100.263L68.8347 98.5765V98.5697C65.5785 97.6818 62.134 98.8656 59.9936 101.619L56.0174 106.774C54.7719 108.378 52.9232 109.307 50.9643 109.307C49.0053 109.307 47.1566 108.378 45.9112 106.774L41.935 101.619C40.2939 99.5058 37.855 98.2807 35.2733 98.2807C34.5403 98.2876 33.8074 98.3839 33.0939 98.5698L27.042 100.256V100.263C25.1479 100.793 23.1305 100.394 21.5414 99.1754C19.9586 97.9503 18.9726 96.0439 18.8624 93.9653L18.4991 87.3235C18.2916 83.772 16.1641 80.6679 13.0505 79.3533L7.1997 76.9306C5.37691 76.1804 3.96294 74.6042 3.35966 72.6289C2.75642 70.6467 3.02237 68.4923 4.08616 66.7442L7.54344 61.1485H7.54993C9.3596 58.1408 9.3596 54.2865 7.54993 51.2717L4.08617 45.7312C3.02238 43.9898 2.75643 41.8287 3.35967 39.8534C3.96292 37.878 5.37692 36.295 7.19971 35.5448L13.044 33.1221H13.0505C16.1706 31.8075 18.2982 28.6965 18.4992 25.1382L18.8624 18.5101C18.9727 16.4384 19.9586 14.525 21.5414 13.2999C23.1241 12.0748 25.1479 11.6756 27.042 12.1987L33.0939 13.885C36.3436 14.7866 39.7946 13.6028 41.935 10.8565L45.9112 5.71499V5.72188C47.1502 4.10443 49.0053 3.16841 50.9643 3.16841C52.9233 3.16841 54.7784 4.10447 56.0174 5.72188L59.9936 10.8633V10.8565C62.1342 13.6096 65.5785 14.8003 68.8347 13.9056L74.8866 12.2193C76.7806 11.6893 78.8045 12.0954 80.3872 13.3205C81.9699 14.5388 82.9559 16.4521 83.0662 18.5307L83.4295 25.1588C83.6305 28.7171 85.758 31.8282 88.8781 33.1427L94.7224 35.5654H94.7289C96.5452 36.3156 97.9527 37.8917 98.556 39.8602C99.1592 41.8356 98.8998 43.99 97.8425 45.7312L94.4695 51.3269C92.6467 54.3414 92.6467 58.2095 94.4695 61.2243L94.3981 61.224ZM50.9646 19.3364C41.7277 19.3364 32.8728 23.2319 26.3418 30.1629C19.8163 37.0869 16.145 46.4887 16.145 56.2825C16.145 66.0835 19.8163 75.4793 26.3418 82.4092C32.8738 89.3401 41.7279 93.2288 50.9646 93.2288C60.2012 93.2288 69.0563 89.3401 75.5873 82.4092C82.1128 75.4783 85.7841 66.0834 85.7841 56.2825C85.7776 46.4883 82.1063 37.0998 75.5743 30.1699C69.0489 23.2459 60.1944 19.3501 50.9646 19.3364ZM50.9646 91.0279C42.279 91.0279 33.9505 87.3664 27.8147 80.8553C21.672 74.3374 18.2212 65.5 18.2212 56.2845C18.2212 47.0753 21.672 38.2382 27.8147 31.7206C33.951 25.2027 42.2797 21.5411 50.9646 21.5411C59.6494 21.5411 67.9786 25.2027 74.1144 31.7206C80.2571 38.2386 83.7079 47.076 83.7079 56.2845C83.7014 65.5005 80.2442 74.3307 74.1079 80.843C67.9716 87.3609 59.643 91.0225 50.9631 91.0293L50.9646 91.0279ZM74.1924 49.1262C74.8216 51.4526 75.146 53.8684 75.146 56.2843C75.146 63.0982 72.5967 69.6368 68.0562 74.4538C63.5091 79.2718 57.3534 81.9835 50.9325 81.9835C44.5108 81.9835 38.3487 79.2716 33.8089 74.4538C29.2691 69.636 26.7126 63.0973 26.7126 56.2843C26.7126 49.4703 29.2684 42.9387 33.8089 38.1147C38.3495 33.2967 44.5117 30.5919 50.9325 30.5919C53.0732 30.585 55.2071 30.8879 57.2764 31.4936C57.5423 31.5624 57.7694 31.7482 57.9056 31.996C58.0418 32.2507 58.0807 32.5535 58.0029 32.8288C57.8602 33.4207 57.2958 33.7718 56.7445 33.6203C54.8569 33.1041 52.9109 32.8564 50.9649 32.8839C42.02 32.8839 33.9575 38.6103 30.5384 47.379C27.12 56.1477 29.0205 66.2446 35.3514 72.9489C41.6822 79.6527 51.2045 81.6487 59.4627 78.0009C67.7201 74.353 73.0908 65.7771 73.0714 56.2862C73.0714 54.07 72.7795 51.8675 72.2087 49.7337C72.1244 49.4584 72.1568 49.1556 72.2866 48.9009C72.4163 48.6462 72.6368 48.4604 72.8963 48.3778C73.4541 48.2126 74.0314 48.543 74.1936 49.128L74.1924 49.1262ZM54.9266 42.8148L47.2789 54.0131L46.1049 52.8361C43.2378 50.0004 38.7426 50.1657 36.0701 53.2009C33.3976 56.2431 33.5534 61.0128 36.4139 63.8486L43.4713 70.8415C44.7816 72.1493 46.5134 72.8787 48.3168 72.8787H49.0109C51.0347 72.6585 52.8768 71.5366 54.0769 69.7953L66.4273 51.6997C67.6273 50.0822 68.1528 48.0244 67.8868 45.987C67.6208 43.9567 66.5895 42.1189 65.0197 40.9144C63.4499 39.71 61.491 39.235 59.584 39.5998C57.677 39.9646 55.9968 41.1416 54.9266 42.8486L54.9266 42.8148ZM59.8695 42.0646C61.8608 41.7136 63.8521 42.6634 64.929 44.4736C66.0058 46.2836 65.9539 48.6033 64.7993 50.3582L52.4489 68.4538C51.6056 69.6927 50.2953 70.4841 48.8617 70.6357C47.4282 70.7871 46.0011 70.2846 44.9438 69.2453L37.8347 62.2524C35.7978 60.2221 35.7005 56.8288 37.6076 54.6744C39.5211 52.5132 42.719 52.4031 44.7558 54.4336L46.7991 56.4708H46.7926C46.9937 56.6428 47.2467 56.7392 47.5062 56.7461C47.8046 56.7117 48.0705 56.5465 48.2456 56.2849L56.5679 44.0818C57.3722 42.9668 58.5591 42.2365 59.8695 42.0646ZM6.41944 134.623C6.22483 135.594 6.56214 136.606 7.28864 137.239C8.02162 137.865 9.0206 138.017 9.88326 137.61L18.1146 133.371C20.0477 132.366 22.3763 132.937 23.6996 134.734L29.3754 142.353V142.346C29.9722 143.151 30.9581 143.516 31.8986 143.289C32.8392 143.062 33.5721 142.284 33.7862 141.286L39.3387 115.593V115.586C39.4685 114.994 40.0263 114.622 40.5841 114.76C41.142 114.898 41.4923 115.489 41.3625 116.081L35.81 141.775V141.782C35.4273 143.612 34.078 145.044 32.3527 145.45C32.0154 145.526 31.6716 145.574 31.3278 145.581C29.9332 145.588 28.61 144.906 27.7473 143.743L22.0715 136.124H22.078C21.3385 135.153 20.0737 134.85 19.0163 135.394L10.7849 139.634H10.7784C9.1892 140.467 7.28209 140.24 5.90051 139.063C4.51888 137.879 3.90269 135.952 4.33077 134.128L11.1806 103.073C11.2325 102.784 11.3946 102.529 11.6216 102.371C11.8552 102.212 12.1406 102.164 12.4065 102.226C12.9644 102.364 13.3211 102.949 13.2044 103.548L6.41944 134.623ZM94.6366 137.301C95.4084 136.674 95.7587 135.621 95.5187 134.623L88.8116 103.547C88.6883 102.948 89.0451 102.363 89.6029 102.226C89.8754 102.164 90.1543 102.212 90.3878 102.37C90.6213 102.529 90.777 102.783 90.8354 103.072L97.5294 134.148V134.142C97.951 135.972 97.3413 137.899 95.9532 139.076C94.5715 140.26 92.6709 140.481 91.0753 139.648L82.8439 135.408C81.7866 134.871 80.5153 135.174 79.7822 136.145L74.1064 143.764C73.2437 144.927 71.9204 145.601 70.5259 145.595C70.1821 145.588 69.8383 145.546 69.5075 145.471C67.7755 145.065 66.4263 143.633 66.0437 141.795L60.4912 116.102C60.329 115.51 60.6533 114.891 61.2112 114.719C61.769 114.547 62.3528 114.884 62.515 115.476L68.0676 141.169V141.176C68.2816 142.174 69.0211 142.952 69.9616 143.179C70.9021 143.406 71.8815 143.041 72.4783 142.236L78.1541 134.617V134.624C79.5163 132.813 81.8968 132.29 83.8299 133.371L92.0613 137.611C92.9045 138.03 93.8905 137.906 94.6235 137.301L94.6366 137.301Z" fill="#008083"/>
<path d="M99.5873 46.9422C100.962 44.6365 101.3 41.8008 100.508 39.2061C99.7171 36.6043 97.875 34.5188 95.4879 33.5071L89.6436 31.05C87.263 30.0589 85.6413 27.6982 85.4922 24.9932L85.1289 18.3652C84.9668 15.6396 83.6694 13.1342 81.5873 11.5306C79.5051 9.92006 76.8585 9.37624 74.3677 10.0508L68.2638 11.7784C65.7924 12.4598 63.1719 11.5582 61.5502 9.4658L57.5869 4.32433C55.9458 2.21823 53.5069 1 50.9317 1C48.3565 1 45.9112 2.21825 44.2701 4.32433L40.3068 9.4658C38.7047 11.5307 36.1166 12.4323 33.6646 11.7784L27.5933 10.0921V10.0852C25.1024 9.41761 22.4558 9.95447 20.3737 11.565C18.298 13.1687 17.0007 15.6808 16.8385 18.3996L16.3715 25.0483C16.2093 27.7118 14.6201 30.0451 12.285 31.0499L6.44067 33.4726C4.05362 34.4844 2.2114 36.5699 1.42014 39.1647C0.628788 41.7665 0.966079 44.602 2.34124 46.9078L5.71416 52.5035C7.0958 54.7817 7.0958 57.7136 5.71416 59.9919L2.34124 65.5876C0.966096 67.8933 0.628871 70.7291 1.42014 73.3306C2.2115 75.9255 4.05362 78.0108 6.44067 79.0227L12.285 81.4248V81.4317C14.6591 82.4228 16.2806 84.7835 16.4364 87.4885L16.7996 94.1303C16.9618 96.8559 18.2591 99.3613 20.3413 100.965C22.4235 102.575 25.0701 103.119 27.5609 102.445L33.6648 100.793C36.1362 100.105 38.7502 100.999 40.3784 103.085L44.3417 108.24V108.247C45.9827 110.346 48.4216 111.564 50.9968 111.564C53.572 111.564 56.0174 110.346 57.6585 108.247L61.6217 103.092V103.085C63.2304 101.027 65.8185 100.139 68.264 100.793L74.3353 102.479C76.8262 103.154 79.4727 102.61 81.5549 101.006C83.6306 99.3956 84.9278 96.8904 85.0901 94.1647L85.5571 87.5229C85.7193 84.8179 87.3344 82.4572 89.7085 81.4661L95.5528 79.064H95.5593C97.9464 78.0522 99.7886 75.9599 100.58 73.3651C101.371 70.7702 101.034 67.9346 99.6588 65.6289L96.2015 60.0332L96.195 60.0263C94.8134 57.7481 94.8134 54.823 96.195 52.5379L99.5873 46.9422ZM94.3981 61.224L97.771 66.8197C98.8089 68.5473 99.0748 70.6809 98.4845 72.6357C97.8943 74.5904 96.5191 76.1665 94.7289 76.9305L88.8845 79.3532H88.878C85.7645 80.6678 83.637 83.7719 83.4294 87.3234L83.0662 93.9652C82.9559 96.0438 81.9699 97.9502 80.3872 99.1753C78.798 100.394 76.7806 100.793 74.8866 100.263L68.8347 98.5765V98.5697C65.5785 97.6818 62.134 98.8656 59.9936 101.619L56.0174 106.774C54.7719 108.378 52.9232 109.307 50.9643 109.307C49.0053 109.307 47.1566 108.378 45.9112 106.774L41.935 101.619C40.2939 99.5058 37.855 98.2807 35.2733 98.2807C34.5403 98.2876 33.8074 98.3839 33.0939 98.5698L27.042 100.256V100.263C25.1479 100.793 23.1305 100.394 21.5414 99.1754C19.9586 97.9503 18.9726 96.0439 18.8624 93.9653L18.4991 87.3235C18.2916 83.772 16.1641 80.6679 13.0505 79.3533L7.1997 76.9306C5.37691 76.1804 3.96294 74.6042 3.35966 72.6289C2.75642 70.6467 3.02237 68.4923 4.08616 66.7442L7.54344 61.1485H7.54993C9.3596 58.1408 9.3596 54.2865 7.54993 51.2717L4.08617 45.7312C3.02238 43.9898 2.75643 41.8287 3.35967 39.8534C3.96292 37.878 5.37692 36.295 7.19971 35.5448L13.044 33.1221H13.0505C16.1706 31.8075 18.2982 28.6965 18.4992 25.1382L18.8624 18.5101C18.9727 16.4384 19.9586 14.525 21.5414 13.2999C23.1241 12.0748 25.1479 11.6756 27.042 12.1987L33.0939 13.885C36.3436 14.7866 39.7946 13.6028 41.935 10.8565L45.9112 5.71499V5.72188C47.1502 4.10443 49.0053 3.16841 50.9643 3.16841C52.9233 3.16841 54.7784 4.10447 56.0174 5.72188L59.9936 10.8633V10.8565C62.1342 13.6096 65.5785 14.8003 68.8347 13.9056L74.8866 12.2193C76.7806 11.6893 78.8045 12.0954 80.3872 13.3205C81.9699 14.5388 82.9559 16.4521 83.0662 18.5307L83.4295 25.1588C83.6305 28.7171 85.758 31.8282 88.8781 33.1427L94.7224 35.5654H94.7289C96.5452 36.3156 97.9527 37.8917 98.556 39.8602C99.1592 41.8356 98.8998 43.99 97.8425 45.7312L94.4695 51.3269C92.6467 54.3414 92.6467 58.2095 94.4695 61.2243L94.3981 61.224ZM50.9646 19.3364C41.7277 19.3364 32.8728 23.2319 26.3418 30.1629C19.8163 37.0869 16.145 46.4887 16.145 56.2825C16.145 66.0835 19.8163 75.4793 26.3418 82.4092C32.8738 89.3401 41.7279 93.2288 50.9646 93.2288C60.2012 93.2288 69.0563 89.3401 75.5873 82.4092C82.1128 75.4783 85.7841 66.0834 85.7841 56.2825C85.7776 46.4883 82.1063 37.0998 75.5743 30.1699C69.0489 23.2459 60.1944 19.3501 50.9646 19.3364ZM50.9646 91.0279C42.279 91.0279 33.9505 87.3664 27.8147 80.8553C21.672 74.3374 18.2212 65.5 18.2212 56.2845C18.2212 47.0753 21.672 38.2382 27.8147 31.7206C33.951 25.2027 42.2797 21.5411 50.9646 21.5411C59.6494 21.5411 67.9786 25.2027 74.1144 31.7206C80.2571 38.2386 83.7079 47.076 83.7079 56.2845C83.7014 65.5005 80.2442 74.3307 74.1079 80.843C67.9716 87.3609 59.643 91.0225 50.9631 91.0293L50.9646 91.0279ZM74.1924 49.1262C74.8216 51.4526 75.146 53.8684 75.146 56.2843C75.146 63.0982 72.5967 69.6368 68.0562 74.4538C63.5091 79.2718 57.3534 81.9835 50.9325 81.9835C44.5108 81.9835 38.3487 79.2716 33.8089 74.4538C29.2691 69.636 26.7126 63.0973 26.7126 56.2843C26.7126 49.4703 29.2684 42.9387 33.8089 38.1147C38.3495 33.2967 44.5117 30.5919 50.9325 30.5919C53.0732 30.585 55.2071 30.8879 57.2764 31.4936C57.5423 31.5624 57.7694 31.7482 57.9056 31.996C58.0418 32.2507 58.0807 32.5535 58.0029 32.8288C57.8602 33.4207 57.2958 33.7718 56.7445 33.6203C54.8569 33.1041 52.9109 32.8564 50.9649 32.8839C42.02 32.8839 33.9575 38.6103 30.5384 47.379C27.12 56.1477 29.0205 66.2446 35.3514 72.9489C41.6822 79.6527 51.2045 81.6487 59.4627 78.0009C67.7201 74.353 73.0908 65.7771 73.0714 56.2862C73.0714 54.07 72.7795 51.8675 72.2087 49.7337C72.1244 49.4584 72.1568 49.1556 72.2866 48.9009C72.4163 48.6462 72.6368 48.4604 72.8963 48.3778C73.4541 48.2126 74.0314 48.543 74.1936 49.128L74.1924 49.1262ZM54.9266 42.8148L47.2789 54.0131L46.1049 52.8361C43.2378 50.0004 38.7426 50.1657 36.0701 53.2009C33.3976 56.2431 33.5534 61.0128 36.4139 63.8486L43.4713 70.8415C44.7816 72.1493 46.5134 72.8787 48.3168 72.8787H49.0109C51.0347 72.6585 52.8768 71.5366 54.0769 69.7953L66.4273 51.6997C67.6273 50.0822 68.1528 48.0244 67.8868 45.987C67.6208 43.9567 66.5895 42.1189 65.0197 40.9144C63.4499 39.71 61.491 39.235 59.584 39.5998C57.677 39.9646 55.9968 41.1416 54.9266 42.8486L54.9266 42.8148ZM59.8695 42.0646C61.8608 41.7136 63.8521 42.6634 64.929 44.4736C66.0058 46.2836 65.9539 48.6033 64.7993 50.3582L52.4489 68.4538C51.6056 69.6927 50.2953 70.4841 48.8617 70.6357C47.4282 70.7871 46.0011 70.2846 44.9438 69.2453L37.8347 62.2524C35.7978 60.2221 35.7005 56.8288 37.6076 54.6744C39.5211 52.5132 42.719 52.4031 44.7558 54.4336L46.7991 56.4708H46.7926C46.9937 56.6428 47.2467 56.7392 47.5062 56.7461C47.8046 56.7117 48.0705 56.5465 48.2456 56.2849L56.5679 44.0818C57.3722 42.9668 58.5591 42.2365 59.8695 42.0646ZM6.41944 134.623C6.22483 135.594 6.56214 136.606 7.28864 137.239C8.02162 137.865 9.0206 138.017 9.88326 137.61L18.1146 133.371C20.0477 132.366 22.3763 132.937 23.6996 134.734L29.3754 142.353V142.346C29.9722 143.151 30.9581 143.516 31.8986 143.289C32.8392 143.062 33.5721 142.284 33.7862 141.286L39.3387 115.593V115.586C39.4685 114.994 40.0263 114.622 40.5841 114.76C41.142 114.898 41.4923 115.489 41.3625 116.081L35.81 141.775V141.782C35.4273 143.612 34.078 145.044 32.3527 145.45C32.0154 145.526 31.6716 145.574 31.3278 145.581C29.9332 145.588 28.61 144.906 27.7473 143.743L22.0715 136.124H22.078C21.3385 135.153 20.0737 134.85 19.0163 135.394L10.7849 139.634H10.7784C9.1892 140.467 7.28209 140.24 5.90051 139.063C4.51888 137.879 3.90269 135.952 4.33077 134.128L11.1806 103.073C11.2325 102.784 11.3946 102.529 11.6216 102.371C11.8552 102.212 12.1406 102.164 12.4065 102.226C12.9644 102.364 13.3211 102.949 13.2044 103.548L6.41944 134.623ZM94.6366 137.301C95.4084 136.674 95.7587 135.621 95.5187 134.623L88.8116 103.547C88.6883 102.948 89.0451 102.363 89.6029 102.226C89.8754 102.164 90.1543 102.212 90.3878 102.37C90.6213 102.529 90.777 102.783 90.8354 103.072L97.5294 134.148V134.142C97.951 135.972 97.3413 137.899 95.9532 139.076C94.5715 140.26 92.6709 140.481 91.0753 139.648L82.8439 135.408C81.7866 134.871 80.5153 135.174 79.7822 136.145L74.1064 143.764C73.2437 144.927 71.9204 145.601 70.5259 145.595C70.1821 145.588 69.8383 145.546 69.5075 145.471C67.7755 145.065 66.4263 143.633 66.0437 141.795L60.4912 116.102C60.329 115.51 60.6533 114.891 61.2112 114.719C61.769 114.547 62.3528 114.884 62.515 115.476L68.0676 141.169V141.176C68.2816 142.174 69.0211 142.952 69.9616 143.179C70.9021 143.406 71.8815 143.041 72.4783 142.236L78.1541 134.617V134.624C79.5163 132.813 81.8968 132.29 83.8299 133.371L92.0613 137.611C92.9045 138.03 93.8905 137.906 94.6235 137.301L94.6366 137.301Z" stroke="#008083" stroke-width="2" mask="url(#path-1-outside-1_75_151)"/>
</svg>
