<?xml version="1.0" encoding="utf-8"?>
<!-- Generator: Adobe Illustrator 23.0.3, SVG Export Plug-In . SVG Version: 6.00 Build 0)  -->
<svg version="1.0" id="Layer_1" xmlns="http://www.w3.org/2000/svg" xmlns:xlink="http://www.w3.org/1999/xlink" x="0px" y="0px"
	 viewBox="0 0 595.3 445.8" style="enable-background:new 0 0 595.3 445.8;" xml:space="preserve">
<style type="text/css">
	.st0{fill:#008080;}
	.st1{fill:#FFFFFF;}
</style>
<g>
	<path class="st0" d="M168.2,258c-11.6,0-20.3-5.4-26.9-14.4c-16.9-23.3-9.5-55.4,16.9-67.8c25.1-11.9,50.1-9.7,72.4,7.4
		c18.8,14.4,22.7,42,9.5,60.5c-7.6,10.7-18.6,15.2-31.2,16.5c-5.1,0.5-10.3,0.5-15.5,0.4c-2.8,0-3.7,1-3.7,3.8
		c0.2,10.7,0,21.3,0.1,32C190,305,192,307.7,200,311c-9.2,0-18.1,0-27,0c7.1-1.5,9-6.7,9.4-12.9c0.2-2,0.3-4,0.3-6
		c0-26.5,0-53,0-79.5c0-1.8,0-3.7-0.2-5.5c-0.5-6.1-1.9-11.6-9.1-13.3c8.6,0,17.2,0,25.7,0c-8.6,2.3-9.3,9.2-9.3,16.4
		c0,14.8,0.1,29.7-0.1,44.5c0,3.4,0.9,4.5,4.4,4.5c12.1,0.3,23.7-1.2,33-9.9c17.3-16.2,16.1-46.1-2.4-64
		c-16.7-16-46.8-19.4-66.5-7.2c-16.1,10-19.8,25.4-18.1,42.9c0.5,5.3,1.9,10.5,4.2,15.3C149.2,246.9,156.1,255.3,168.2,258z"/>
	<path class="st0" d="M405.6,183.2c0,5.8,0,10.9,0,16.1c-1.5-0.8-1.2-2.4-1.3-3.5c-0.4-4.6-3.2-7.1-7.2-8.6
		c-24.1-8.5-46-4.3-65.1,12.3c-35.2,30.6-37.8,89.1-5.7,121.3c23,23.1,61.8,29.3,90.1,14.2c3.5-1.9,6.9-4.1,9.8-6.8
		c2.9-2.7,5.5-5.8,8.4-8.5c-2.5,6.1-6.8,10.9-11.9,14.9c-23.6,18.6-58.7,19.7-86.3,3c-52.8-32.2-53.1-113.9-0.4-146.1
		c18.5-11.3,38.4-13,59.2-7.7C398.4,184.5,401.9,187.5,405.6,183.2z"/>
	<path class="st0" d="M415.7,305.2c-26.8,0-45.8-16.6-48.2-41.6c-1.9-20.4,11-39.5,31.6-46.8c23.6-8.4,50.1,2.9,60.2,25.6
		c11.6,26-4.8,56.8-32.9,61.8C422.6,304.8,418.8,305.5,415.7,305.2z M455.9,262.1c0.2-3.1-0.3-6.9-1-10.7
		c-7.2-37.1-50.1-40.9-67.8-24.6c-13.4,12.3-16.8,33.5-7.3,51.9c8.8,17.1,29.7,26.7,48.1,22.2C445.1,296.7,456,282,455.9,262.1z"/>
	<path class="st0" d="M285.5,311c-9.7,0-18.4,0-27.8,0c7.6-2.7,10-5.6,10-13.4c0.1-30.1,0.1-60.3,0-90.4c0-5.9-1.7-11.2-8.4-13.3
		c8.3,0,16.7,0,25,0c-7.2,2.2-8.8,7.9-8.8,14.4c0,30,0,60,0.1,89.9C275.8,305.5,278.1,308.2,285.5,311z"/>
	<g>
		<path class="st0" d="M348,96.5c-1.2,0-2.3,1-2.3,2.2v14.4c0,16.8-13,36.3-28.3,42.5c-6.5,2.6-13.2,4-19.9,4c-0.8,0-1.7,0-2.5-0.1
			l20.1-40.4l8.7-17.5c0.6-1.1,0.5-2.4-0.1-3.4c-0.7-1-1.8-1.7-3-1.7h-72.3c-2,0-3.5,1.6-3.5,3.5v11.3c0,17.5,8.7,33.9,23.2,43.7
			c8.7,5.9,18.9,9,29.4,9c7.3,0,14.5-1.4,21.6-4.3c17.2-6.9,31.1-27.8,31.1-46.6V98.7C350.2,97.5,349.2,96.5,348,96.5z M261.9,101
			h57.2l-8.7,17.3l-14.3,28.6l-0.8-0.1c-7.8-0.7-33.4-5.3-33.4-35.5V101z M249.3,111.4V101h8.1v10.4c0,26.8,19.1,38.1,36.6,39.9
			l-3.9,7.8c-7-1.1-13.6-3.7-19.5-7.6C257.3,142.4,249.3,127.4,249.3,111.4z"/>
		<path class="st0" d="M359.5,96.5c-1.2,0-2.3,1-2.3,2.2c0,1.2,1,2.2,2.3,2.2c5.7,0,10.4,4.7,10.4,10.4c0,5.7-4.7,10.4-10.4,10.4
			c-1.2,0-2.3,1-2.3,2.2c0,1.2,1,2.2,2.3,2.2c8.2,0,14.9-6.7,14.9-14.9C374.3,103.2,367.7,96.5,359.5,96.5z"/>
		<g>
			<g>
				<path class="st0" d="M280.5,113.2l-4.5-2.6c-0.9-0.5-1.9-0.5-2.8,0c-0.9,0.5-1.4,1.4-1.4,2.4v5.2c0,1,0.5,1.9,1.4,2.4
					c0.4,0.2,0.9,0.4,1.4,0.4c0.5,0,1-0.1,1.4-0.4l4.5-2.6c0.9-0.5,1.4-1.4,1.4-2.4C281.9,114.6,281.4,113.7,280.5,113.2z
					 M279.3,115.9l-4.5,2.6c-0.1,0.1-0.3,0-0.3,0c-0.1,0-0.2-0.1-0.2-0.3V113c0-0.2,0.1-0.2,0.2-0.3c0,0,0.1,0,0.2,0
					c0.1,0,0.1,0,0.2,0l4.5,2.6c0.1,0.1,0.2,0.2,0.2,0.3C279.5,115.7,279.4,115.8,279.3,115.9z"/>
			</g>
		</g>
		<g>
			<g>
				<path class="st0" d="M293.5,127.6c-0.7-0.8-1.7-1.1-2.7-0.9l-5.3,1c-1,0.2-1.8,0.9-2.2,1.9c-0.2,0.5-0.2,1-0.1,1.5
					c0.1,0.5,0.3,0.9,0.7,1.3l3.5,4c0.5,0.6,1.3,1,2.1,1c0.2,0,0.4,0,0.6-0.1c1-0.2,1.8-0.9,2.2-1.9l1.8-5.1
					C294.4,129.5,294.2,128.4,293.5,127.6z M291.6,129.6l-1.7,5.1c-0.1,0.2-0.2,0.2-0.3,0.2c-0.1,0-0.2,0-0.3-0.1l-3.5-4
					c-0.1-0.1-0.1-0.3-0.1-0.3c0-0.1,0.1-0.2,0.3-0.2l5.2-1c0.2,0,0.3,0.1,0.3,0.1c0,0,0.1,0.1,0.1,0.2
					C291.7,129.5,291.7,129.6,291.6,129.6z"/>
			</g>
		</g>
		<g>
			<g>
				<path class="st0" d="M300.2,108.2c-0.7-0.8-1.7-1.1-2.7-0.9l-5.1,1c-1,0.2-1.8,0.9-2.1,1.8c-0.2,0.5-0.2,1-0.1,1.5
					c0.1,0.5,0.3,0.9,0.6,1.3l3.5,4c0.5,0.6,1.3,1,2.1,1c0.2,0,0.4,0,0.5-0.1c1-0.2,1.8-0.9,2.1-1.8l1.7-5
					C301.1,110,300.9,109,300.2,108.2z M298.4,110.2l-1.7,5c-0.1,0.2-0.2,0.2-0.2,0.2c-0.1,0-0.2,0-0.3-0.1l-3.4-4
					c-0.1-0.1-0.1-0.3-0.1-0.3c0-0.1,0.1-0.2,0.2-0.2l5.2-1c0.2,0,0.3,0.1,0.3,0.1c0,0,0.1,0.1,0.1,0.1
					C298.4,110.1,298.4,110.1,298.4,110.2z"/>
			</g>
		</g>
	</g>
</g>
</svg>
